<svg version="1.1" id="Layer_1" xmlns="http://www.w3.org/2000/svg" xmlns:xlink="http://www.w3.org/1999/xlink" x="0px" y="0px"
	 width="100%" viewBox="0 0 579 623" enable-background="new 0 0 579 623" xml:space="preserve">
<path fill="#000000" opacity="1.000000" stroke="none" 
	d="
M320.000000,624.000000 
	C213.333328,624.000000 107.166664,624.000000 1.000000,624.000000 
	C1.000000,416.333344 1.000000,208.666672 1.000000,1.000000 
	C194.000000,1.000000 387.000000,1.000000 580.000000,1.000000 
	C580.000000,208.666672 580.000000,416.333344 580.000000,624.000000 
	C493.500000,624.000000 407.000000,624.000000 320.000000,624.000000 
M289.983459,486.846985 
	C300.298431,486.826141 310.613434,486.805267 321.816711,486.913361 
	C332.144257,486.670624 342.471802,486.427887 353.373352,486.585449 
	C356.214081,487.303070 358.957642,490.556610 362.755005,486.959473 
	C363.541412,486.919342 364.327850,486.879211 365.970398,486.959229 
	C368.262848,486.975555 370.555267,486.991852 373.324554,487.430573 
	C376.884003,490.686676 379.133453,488.934998 380.204163,485.240021 
	C381.809418,479.700684 383.211243,474.078033 384.272034,468.410797 
	C386.024689,459.047272 387.997589,449.665466 388.765961,440.201141 
	C389.179321,435.109589 390.566406,433.839630 395.456940,433.855530 
	C444.068604,434.013794 492.681396,433.862976 541.292725,434.068420 
	C547.172729,434.093231 551.953674,432.318909 553.911621,427.231903 
	C555.900879,422.063751 556.382996,416.105896 552.477478,411.106781 
	C551.671631,410.075317 550.202087,409.235168 548.904602,408.975433 
	C544.773499,408.148621 540.579346,407.637054 535.909790,406.927765 
	C535.909790,404.834534 535.909607,403.035309 535.909790,401.236084 
	C535.911560,383.422729 535.779907,365.607849 535.977417,347.796692 
	C536.063293,340.061035 533.515686,334.288788 526.027100,331.382812 
	C515.525757,327.307709 505.645294,321.320374 494.349213,319.700745 
	C486.263977,318.541504 477.999634,318.237518 469.817780,318.266571 
	C462.908569,318.291077 456.345734,320.275543 450.293579,325.276489 
	C449.860352,328.120880 449.059570,330.964264 449.051788,333.809814 
	C448.987762,357.195862 449.071167,380.582306 448.352997,403.993866 
	C432.412933,403.513580 416.472870,403.033295 399.696747,402.527802 
	C401.216797,399.725647 402.447388,397.779938 403.357452,395.694336 
	C404.398193,393.309235 405.455292,390.862518 405.981903,388.333588 
	C408.377594,376.827362 400.331604,369.297302 394.414856,361.595856 
	C390.782623,356.868011 384.132141,354.483551 378.917175,350.929138 
	C377.670715,350.079590 376.744232,348.760498 375.670593,347.657379 
	C377.222351,347.039764 378.767731,345.905487 380.326904,345.886230 
	C392.823273,345.731567 405.322357,345.811554 417.820404,345.771729 
	C428.472351,345.737762 441.992310,335.115997 442.715240,324.907135 
	C443.664703,311.498779 443.332062,297.999634 443.601135,283.676575 
	C443.655212,250.163437 443.709259,216.650314 443.586853,182.354172 
	C443.545868,176.447937 441.181244,171.259567 437.932404,166.613770 
	C435.675232,163.386139 432.963745,159.903625 429.609924,158.174149 
	C426.151672,156.390778 421.669769,156.592545 417.235718,155.299484 
	C414.470093,154.857101 411.707306,154.056458 408.938385,154.034698 
	C397.286163,153.943085 385.632111,154.084122 373.056519,153.984802 
	C364.711395,154.036530 356.366272,154.088272 347.088501,154.013412 
	C333.379669,154.304504 319.670868,154.595596 305.496613,154.425613 
	C304.291656,154.107803 303.086731,153.789993 301.888153,153.473877 
	C303.594360,146.740799 302.788116,144.562012 298.738831,145.209763 
	C292.566528,146.197174 286.142609,146.859039 280.418762,149.144684 
	C268.326599,153.973282 256.229553,157.363953 242.669693,154.370255 
	C241.052155,154.577850 239.428223,155.003311 237.818146,154.956161 
	C229.877869,154.723648 221.939194,154.059631 214.003815,154.113922 
	C195.420258,154.241058 176.838943,154.691269 157.471085,155.360809 
	C155.831238,155.591583 154.157303,156.161026 152.556915,155.999893 
	C138.956772,154.630630 125.279610,168.534897 126.178596,182.366226 
	C126.109612,182.690384 125.980240,183.014526 125.980209,183.338684 
	C125.976685,228.211441 125.976440,273.084198 126.027763,317.956909 
	C126.028908,318.958130 126.621872,319.958740 126.930611,321.639709 
	C126.885117,328.596832 133.781769,339.461914 139.935867,342.118256 
	C145.618927,344.571259 151.378357,346.147491 157.751785,345.867615 
	C166.721542,345.473663 175.722321,345.743439 184.709091,345.818298 
	C186.363724,345.832092 188.014832,346.268616 190.531586,346.636200 
	C188.156052,349.668030 186.684570,352.050720 184.732590,353.935913 
	C180.181061,358.331635 174.197205,361.756317 171.038147,366.941772 
	C167.699814,372.421570 165.675247,379.449799 165.491791,385.870605 
	C165.340622,391.161469 168.717606,396.553101 170.897247,402.979858 
	C160.813614,402.979858 150.295868,402.970032 139.778183,402.989197 
	C137.950760,402.992523 136.121063,403.078888 134.296692,403.194397 
	C125.716187,403.737701 117.143875,404.472900 108.555710,404.814514 
	C100.334641,405.141541 92.097664,405.068329 82.947464,405.148041 
	C77.011688,405.154419 71.075905,405.160828 64.315903,405.303467 
	C55.576424,405.884491 46.817509,406.268402 38.105469,407.127625 
	C33.580338,407.573883 28.762508,408.071045 24.758106,409.976685 
	C20.254562,412.119781 18.191748,420.935364 19.906754,425.852966 
	C21.460793,430.309021 27.201618,433.945526 32.784679,433.946411 
	C81.049492,433.953796 129.314301,433.945496 177.579117,433.967407 
	C179.849823,433.968445 182.120438,434.210663 184.773392,434.362427 
	C185.353989,442.086456 185.645920,449.398010 186.547241,456.633667 
	C187.061340,460.760864 188.565445,464.765289 189.630829,468.823151 
	C191.159988,474.647461 192.399857,480.570068 194.324432,486.260925 
	C195.794662,490.608246 197.046600,490.579102 201.210602,486.987793 
	C203.787842,486.933655 206.365067,486.879517 209.638580,486.973969 
	C210.347458,486.956360 211.056335,486.938751 212.405228,487.133179 
	C214.591095,487.064606 216.776978,486.996063 219.861908,486.970917 
	C230.709869,486.688416 241.557846,486.405914 253.086090,486.423157 
	C265.076843,486.530945 277.067596,486.638733 289.983459,486.846985 
z"/>
<path fill="#3E224A" opacity="1.000000" stroke="none" 
	d="
M243.107544,155.007538 
	C256.229553,157.363953 268.326599,153.973282 280.418762,149.144684 
	C286.142609,146.859039 292.566528,146.197174 298.738831,145.209763 
	C302.788116,144.562012 303.594360,146.740799 301.888153,153.473877 
	C303.086731,153.789993 304.291656,154.107803 305.945007,155.038055 
	C320.268372,155.710144 334.143311,155.769791 348.387390,155.884888 
	C349.500153,155.902771 350.243774,155.865173 351.240143,155.885193 
	C351.661194,155.903870 351.829529,155.864914 352.394714,155.881439 
	C353.857391,155.900055 354.923218,155.863190 356.241821,155.884781 
	C356.663177,155.904785 356.831818,155.866318 357.330139,155.882156 
	C358.102356,155.900253 358.544891,155.864044 359.239319,155.885681 
	C359.659241,155.905685 359.827301,155.867813 360.457153,155.886658 
	C365.274017,155.904709 369.629028,155.866058 374.448853,155.899048 
	C389.154358,155.955734 403.395050,155.940765 417.635712,155.925797 
	C421.669769,156.592545 426.151672,156.390778 429.609924,158.174149 
	C432.963745,159.903625 435.675232,163.386139 437.932404,166.613770 
	C441.181244,171.259567 443.545868,176.447937 443.527466,183.118271 
	C443.350952,184.534836 443.129211,185.187729 443.131744,185.839722 
	C443.259338,218.739716 443.406128,251.639633 443.550781,284.539551 
	C443.332062,297.999634 443.664703,311.498779 442.715240,324.907135 
	C441.992310,335.115997 428.472351,345.737762 417.820404,345.771729 
	C405.322357,345.811554 392.823273,345.731567 380.326904,345.886230 
	C378.767731,345.905487 377.222351,347.039764 375.670593,347.657379 
	C376.744232,348.760498 377.670715,350.079590 378.917175,350.929138 
	C384.132141,354.483551 390.782623,356.868011 394.414856,361.595856 
	C400.331604,369.297302 408.377594,376.827362 405.981903,388.333588 
	C405.455292,390.862518 404.398193,393.309235 403.357452,395.694336 
	C402.447388,397.779938 401.216797,399.725647 399.696747,402.527802 
	C416.472870,403.033295 432.412933,403.513580 449.099609,403.843842 
	C450.225342,401.671600 450.928070,399.650391 450.934387,397.627014 
	C451.009888,373.441681 450.981995,349.256012 450.981140,325.070435 
	C456.345734,320.275543 462.908569,318.291077 469.817780,318.266571 
	C477.999634,318.237518 486.263977,318.541504 494.349213,319.700745 
	C505.645294,321.320374 515.525757,327.307709 526.027100,331.382812 
	C533.515686,334.288788 536.063293,340.061035 535.977417,347.796692 
	C535.779907,365.607849 535.911560,383.422729 535.909790,401.236084 
	C535.909607,403.035309 535.909790,404.834534 535.909790,406.927765 
	C540.579346,407.637054 544.773499,408.148621 548.904602,408.975433 
	C550.202087,409.235168 551.671631,410.075317 552.477478,411.106781 
	C556.382996,416.105896 555.900879,422.063751 553.911621,427.231903 
	C551.953674,432.318909 547.172729,434.093231 541.292725,434.068420 
	C492.681396,433.862976 444.068604,434.013794 395.456940,433.855530 
	C390.566406,433.839630 389.179321,435.109589 388.765961,440.201141 
	C387.997589,449.665466 386.024689,459.047272 384.272034,468.410797 
	C383.211243,474.078033 381.809418,479.700684 380.204163,485.240021 
	C379.133453,488.934998 376.884003,490.686676 373.262878,486.901947 
	C373.648529,485.675323 374.279266,485.034302 374.516235,484.270996 
	C379.927521,466.839752 384.181732,449.162231 381.789032,430.758759 
	C379.132111,410.323151 368.422577,397.602600 347.445099,396.697449 
	C335.826569,396.196198 324.170776,396.418762 312.533661,396.523193 
	C299.068695,396.644073 285.606506,397.133636 272.141754,397.208252 
	C255.525772,397.300354 238.873093,396.450226 222.303879,397.310089 
	C211.110214,397.890961 202.504440,403.942017 197.157608,414.476471 
	C192.521164,423.611328 191.611298,433.212860 191.711441,443.086731 
	C191.865250,458.255096 196.024139,472.662445 200.380188,487.017365 
	C197.046600,490.579102 195.794662,490.608246 194.324432,486.260925 
	C192.399857,480.570068 191.159988,474.647461 189.630829,468.823151 
	C188.565445,464.765289 187.061340,460.760864 186.547241,456.633667 
	C185.645920,449.398010 185.353989,442.086456 184.773392,434.362427 
	C182.120438,434.210663 179.849823,433.968445 177.579117,433.967407 
	C129.314301,433.945496 81.049492,433.953796 32.784679,433.946411 
	C27.201618,433.945526 21.460793,430.309021 19.906754,425.852966 
	C18.191748,420.935364 20.254562,412.119781 24.758106,409.976685 
	C28.762508,408.071045 33.580338,407.573883 38.105469,407.127625 
	C46.817509,406.268402 55.576424,405.884491 64.906647,405.559143 
	C71.620819,405.600220 77.744247,405.385620 83.867676,405.171021 
	C92.097664,405.068329 100.334641,405.141541 108.555710,404.814514 
	C117.143875,404.472900 125.716187,403.737701 134.296692,403.194397 
	C136.121063,403.078888 137.950760,402.992523 139.778183,402.989197 
	C150.295868,402.970032 160.813614,402.979858 170.897247,402.979858 
	C168.717606,396.553101 165.340622,391.161469 165.491791,385.870605 
	C165.675247,379.449799 167.699814,372.421570 171.038147,366.941772 
	C174.197205,361.756317 180.181061,358.331635 184.732590,353.935913 
	C186.684570,352.050720 188.156052,349.668030 190.531586,346.636200 
	C188.014832,346.268616 186.363724,345.832092 184.709091,345.818298 
	C175.722321,345.743439 166.721542,345.473663 157.751785,345.867615 
	C151.378357,346.147491 145.618927,344.571259 139.935867,342.118256 
	C133.781769,339.461914 126.885117,328.596832 126.970779,320.833435 
	C127.004150,274.027679 126.997353,228.028214 126.990562,182.028748 
	C125.279610,168.534897 138.956772,154.630630 152.556915,155.999893 
	C154.157303,156.161026 155.831238,155.591583 157.997040,155.592545 
	C185.661194,155.863754 212.799423,155.913803 239.937622,155.903015 
	C240.994385,155.902603 242.050903,155.319260 243.107544,155.007538 
M433.986511,171.402588 
	C433.661682,171.119400 433.336853,170.836212 433.022400,170.199081 
	C432.886261,169.947128 432.683655,169.870178 432.104675,169.318649 
	C428.225159,162.932648 422.066803,160.955429 415.137634,160.934769 
	C388.039795,160.853958 360.941528,160.899155 333.843445,160.910263 
	C332.964996,160.910614 332.086609,161.048767 331.208191,161.122696 
	C331.165253,161.409012 331.122314,161.695312 331.079346,161.981613 
	C334.046143,163.328064 337.012909,164.674530 340.280365,166.648834 
	C351.606018,173.791031 363.436554,178.620575 377.366150,177.378174 
	C386.287872,176.582443 395.338257,177.224823 404.330963,177.230515 
	C417.594757,177.238907 420.654968,180.232971 420.658417,193.291519 
	C420.668457,231.593796 420.758026,269.896667 420.527466,308.197540 
	C420.501709,312.473999 418.620544,316.739258 416.958160,321.228333 
	C413.301392,322.075195 409.655670,323.592957 405.985992,323.653259 
	C389.734039,323.920349 373.469971,324.005615 357.221619,323.644623 
	C351.265198,323.512329 347.467133,325.800781 344.229004,330.829895 
	C343.746063,331.282288 343.263123,331.734680 342.780151,332.187073 
	C342.960083,332.387299 343.140015,332.587524 343.319946,332.787750 
	C343.936401,332.256989 344.552856,331.726196 345.936279,330.979034 
	C353.189087,328.817047 357.134277,330.030823 358.931763,335.797668 
	C360.067017,339.439941 362.023529,340.275543 365.445465,340.251190 
	C381.736420,340.135284 398.028717,340.212341 414.320404,340.172058 
	C416.135712,340.167572 417.991180,340.041077 419.758545,339.653870 
	C432.748047,336.808014 438.758240,326.704224 437.052246,310.031311 
	C437.128448,309.371216 437.270874,308.711121 437.271332,308.050995 
	C437.300415,265.853271 437.354187,223.655441 437.245117,181.458038 
	C437.238678,178.970535 435.912537,176.486420 435.095093,173.352356 
	C434.733521,172.868912 434.371979,172.385468 433.974609,172.009277 
	C433.974609,172.009277 434.081818,172.045242 433.986511,171.402588 
M204.768265,302.597748 
	C204.890442,302.713470 205.012604,302.829163 205.682693,303.517242 
	C209.237411,304.353333 212.792114,305.189453 216.356979,306.829285 
	C218.504929,310.615051 220.652893,314.400787 222.986176,318.838867 
	C230.900513,328.462219 235.161148,329.738647 243.940735,324.344269 
	C243.910156,324.182800 243.938141,323.948944 243.840698,323.870117 
	C229.519928,312.285828 217.605637,298.707611 208.971695,282.324890 
	C208.534531,281.495422 206.314133,281.605682 204.182053,281.439392 
	C195.909760,287.235901 196.182419,297.267822 204.903305,302.244904 
	C204.903305,302.244904 204.774063,302.092987 204.768265,302.597748 
M335.680969,329.933441 
	C344.364319,323.850433 351.567596,316.593109 355.028015,305.564026 
	C356.561523,304.932434 358.048859,303.989532 359.641022,303.753235 
	C361.374512,303.496063 363.205322,303.894745 365.736359,304.009491 
	C372.701111,301.997955 376.420898,297.224030 375.968140,290.878143 
	C375.562958,285.199738 371.095612,280.817902 364.407898,280.330170 
	C359.114532,288.716736 353.821198,297.103333 347.952118,305.826233 
	C340.675323,313.092987 333.398560,320.359711 325.897858,327.850098 
	C328.943024,328.572723 331.964478,329.289734 335.680969,329.933441 
M498.011963,400.199402 
	C497.993225,399.466125 497.974487,398.732849 498.126617,397.110901 
	C498.272736,394.415222 498.418884,391.719574 499.009247,389.017578 
	C499.306091,389.011841 499.602966,389.006989 500.042847,389.886688 
	C500.112213,392.552368 500.181610,395.218079 500.137726,398.767548 
	C500.077820,406.189911 500.185638,406.393188 507.426910,406.713470 
	C513.082825,406.963593 518.771545,406.710510 524.404236,407.179260 
	C529.406494,407.595490 530.792480,405.412933 530.762756,400.834778 
	C530.646057,382.846924 530.786072,364.857269 530.644409,346.869781 
	C530.631348,345.219696 529.293457,343.580017 528.410583,341.207336 
	C526.815918,339.826630 525.429016,337.997589 523.589539,337.145386 
	C516.802551,334.001007 509.897644,331.102844 502.978973,328.253174 
	C488.674927,322.361694 474.133026,322.885101 459.419922,326.612030 
	C456.204712,327.426453 455.347046,329.013763 455.960449,332.887451 
	C456.051727,354.553223 456.143005,376.218964 456.054657,398.749390 
	C455.986145,401.500092 455.097351,404.522095 459.645569,404.758087 
	C470.545959,405.323639 481.440491,406.042908 492.324036,406.874481 
	C496.924011,407.225983 498.962616,405.651306 498.011963,400.199402 
M384.958252,390.500916 
	C383.553558,394.126831 382.148865,397.752747 380.694794,401.506012 
	C392.596191,402.913025 401.520996,394.235077 399.692413,383.086853 
	C399.249176,375.527771 394.674622,370.648590 389.153992,365.871429 
	C387.831177,374.362122 386.612152,382.186676 384.958252,390.500916 
M193.962341,299.097748 
	C193.561737,296.719330 193.161118,294.340912 192.850037,291.153351 
	C193.651321,287.868011 194.452606,284.582672 195.859497,281.010193 
	C198.328156,279.209808 201.018082,277.632599 203.163086,275.505798 
	C204.099274,274.577545 203.919205,272.523438 204.243515,270.071869 
	C204.099716,267.037079 203.955917,264.002289 203.893616,260.072540 
	C203.844391,257.369171 203.795166,254.665833 203.833237,251.228180 
	C203.818939,250.489578 203.804642,249.750977 203.775970,248.522934 
	C203.184433,248.345566 202.592880,248.168182 201.260178,247.899094 
	C197.088791,247.062592 198.577957,243.508957 198.046204,240.248962 
	C198.071350,239.513580 198.096497,238.778214 198.350708,237.673706 
	C197.864151,237.316650 197.377609,236.959610 196.156372,236.533981 
	C190.612839,235.324112 193.739624,231.015564 193.482971,227.400711 
	C194.672897,223.604767 195.862823,219.808823 197.476639,215.460342 
	C199.304321,211.966873 201.132004,208.473404 203.495590,204.575577 
	C206.491684,201.117203 209.487778,197.658844 213.131409,194.035706 
	C219.143265,190.703293 225.155121,187.370865 231.166962,184.038437 
	C231.043518,183.645706 230.920074,183.252991 230.796631,182.860260 
	C229.175339,182.860260 227.554062,182.860229 225.932770,182.860275 
	C205.335297,182.860840 184.737823,182.853088 164.140350,182.866104 
	C155.823990,182.871368 154.455917,184.400711 154.798431,193.907166 
	C154.853333,197.604187 154.908234,201.301193 154.815018,205.905777 
	C154.864960,209.268509 154.914917,212.631226 154.836014,216.908859 
	C154.878876,220.604340 154.921738,224.299835 154.847580,228.917175 
	C154.894012,232.943008 154.940430,236.968826 154.890625,241.908173 
	C154.921829,245.269379 154.953049,248.630585 154.907227,252.898300 
	C154.927673,255.927643 154.948105,258.957001 154.904022,262.873901 
	C154.928024,265.246277 154.952026,267.618622 154.918335,270.899597 
	C154.933777,273.926910 154.949219,276.954224 154.917664,280.785492 
	C154.922684,281.858978 154.927689,282.932434 154.580383,284.744812 
	C154.694977,292.151001 154.809570,299.557220 154.907471,307.857819 
	C154.940308,317.705109 155.295471,318.072632 164.955627,318.076263 
	C179.453445,318.081696 193.951752,318.133453 208.448547,318.011597 
	C210.443008,317.994843 212.430054,317.095520 214.420532,316.604797 
	C213.358810,314.672455 212.297073,312.740143 210.570374,310.438538 
	C203.575546,309.247986 198.185654,305.545715 193.962341,299.097748 
M190.429169,389.158783 
	C188.494812,379.730530 186.560455,370.302277 184.545120,360.479340 
	C178.593857,366.368774 172.048447,371.641174 171.437042,381.616791 
	C170.298264,394.158020 178.179764,405.747223 196.536469,401.213684 
	C194.506348,397.428772 192.506958,393.701172 190.429169,389.158783 
M380.206635,299.305145 
	C376.187836,304.924408 371.390411,309.350098 363.405640,309.548035 
	C356.885620,308.303528 358.259155,313.795044 356.164276,317.609222 
	C358.688416,317.805695 360.424622,318.054565 362.161377,318.058136 
	C377.097839,318.088898 392.034454,318.099945 406.970886,318.064178 
	C414.000275,318.047333 415.003815,316.988495 415.042908,309.957428 
	C415.048462,308.961914 415.017639,307.966187 415.034027,306.041107 
	C414.993774,299.993805 414.953552,293.946503 414.939484,286.985260 
	C414.952423,282.983337 414.965363,278.981384 415.031036,274.083801 
	C415.008911,271.385132 414.986816,268.686462 415.026855,265.091278 
	C414.997406,262.391174 414.967987,259.691101 415.010529,256.077820 
	C414.985382,252.712906 414.960236,249.347977 415.012634,245.066162 
	C414.991211,241.374527 414.969788,237.682907 415.044006,233.074982 
	C415.015076,229.379211 414.986115,225.683456 415.064850,221.067795 
	C415.036652,217.042831 415.008423,213.017883 415.094604,208.078064 
	C415.059113,204.383682 415.023621,200.689316 415.115021,196.089554 
	C415.146423,194.431595 415.218781,192.773209 415.202148,191.115738 
	C415.132599,184.186417 413.875336,182.879211 407.150604,182.856461 
	C398.691895,182.827835 390.205353,183.265915 381.783905,182.705292 
	C376.105713,182.327316 372.507385,185.026978 368.855560,188.336105 
	C370.743195,190.992249 377.545288,189.234924 374.068207,195.697174 
	C372.152466,196.794510 370.236755,197.891830 368.047516,199.145813 
	C371.012756,202.807358 373.516266,205.898727 376.120270,209.696686 
	C378.671539,213.815384 381.222839,217.934082 383.952118,222.759842 
	C388.693115,229.498001 388.508026,229.784225 380.269379,231.171707 
	C379.106262,231.367584 378.184662,232.997635 377.039642,234.862686 
	C377.100769,237.572586 377.161926,240.282501 377.221466,243.816483 
	C377.387604,248.209274 377.553711,252.602051 377.443085,257.698303 
	C377.035980,260.786621 376.628876,263.874908 375.974518,267.653656 
	C374.660919,269.541901 373.347321,271.430145 371.431488,273.058380 
	C370.447723,273.058380 369.463928,273.058380 368.480164,273.058380 
	C368.427582,273.428589 368.375031,273.798767 368.322479,274.168976 
	C369.556732,274.765137 370.791016,275.361298 372.569275,276.067871 
	C372.933044,276.117676 373.296844,276.167511 373.922943,276.849670 
	C376.262543,280.223969 378.602142,283.598267 380.992584,287.895874 
	C380.891846,291.558380 380.791107,295.220886 380.206635,299.305145 
M117.210037,410.058533 
	C89.275803,411.058990 61.337601,411.971039 33.414570,413.221710 
	C31.089098,413.325867 28.866007,415.715881 26.085426,417.521545 
	C26.080774,418.667725 26.076120,419.813904 25.897182,421.737122 
	C26.993540,427.457092 28.422100,428.727417 34.740398,428.732666 
	C83.830238,428.773468 132.920181,428.727692 182.009918,428.811005 
	C186.303955,428.818268 188.241364,427.198578 188.230972,422.279633 
	C189.708206,418.324677 191.185440,414.369720 193.222168,409.908386 
	C195.616852,406.209503 192.479736,407.033203 190.782913,407.095337 
	C179.537964,407.507202 168.296631,408.017426 156.231583,408.318542 
	C153.831421,408.574860 151.431259,408.831177 148.098495,408.953064 
	C141.760406,409.221100 135.422333,409.489105 128.213104,409.496002 
	C124.834572,409.739868 121.456047,409.983734 117.210037,410.058533 
M380.392853,407.077789 
	C380.211182,407.378540 380.029510,407.679321 379.941986,408.621033 
	C380.334442,409.140076 380.726929,409.659119 381.214172,410.856476 
	C382.843567,414.883942 384.472961,418.911438 386.063568,423.731232 
	C386.027222,428.413483 388.973846,428.815979 392.744171,428.810303 
	C441.518188,428.736511 490.292297,428.760498 539.066406,428.756531 
	C540.064819,428.756439 541.066467,428.761047 542.061157,428.688843 
	C546.823792,428.342926 549.485352,426.083557 549.148010,420.301666 
	C548.918945,419.210388 548.689819,418.119110 548.193604,416.296539 
	C545.744812,415.211456 543.363281,413.419464 540.834106,413.178680 
	C534.211609,412.548157 527.524658,412.595947 520.863464,412.371643 
	C499.554779,411.654053 478.246063,410.935730 456.220795,409.864563 
	C452.784363,409.831268 449.347961,409.797974 445.016174,409.517242 
	C438.998962,409.388153 432.981720,409.259064 426.242432,408.806458 
	C423.473999,408.702118 420.705597,408.597748 417.019958,408.332153 
	C405.015533,407.942749 393.011078,407.553345 380.392853,407.077789 
M151.960785,320.389587 
	C150.999954,316.778534 149.222427,313.171661 149.203796,309.555756 
	C149.002869,270.577972 149.063507,231.598755 149.088974,192.619965 
	C149.096405,181.224442 153.077774,177.251373 164.443359,177.237610 
	C186.764511,177.210602 209.085815,177.254852 231.406799,177.186966 
	C233.327621,177.181122 235.790894,177.195511 237.063812,176.105103 
	C240.802185,172.902679 244.067261,169.147751 248.184158,165.398758 
	C250.085495,164.312576 251.986816,163.226395 254.183212,161.971664 
	C253.260269,161.322281 253.018921,161.003738 252.777283,161.003510 
	C219.348663,160.971970 185.918991,160.824661 152.492294,161.074615 
	C146.015411,161.123016 140.421051,164.245667 136.149307,170.371841 
	C134.898392,175.122070 132.596893,179.864594 132.561951,184.623764 
	C132.269638,224.425980 132.383469,264.231262 132.419434,304.035583 
	C132.421539,306.353668 132.810486,308.671448 132.804245,311.898071 
	C131.857224,331.797852 139.819901,340.191772 159.657440,340.199158 
	C169.813705,340.202942 179.980362,339.917633 190.122772,340.292389 
	C197.623932,340.569550 204.398743,339.008423 211.323792,336.097687 
	C216.658737,333.855316 219.207886,330.121307 221.987274,324.573578 
	C219.175552,324.261810 216.986374,323.816132 214.795639,323.808380 
	C197.813232,323.748352 180.827728,323.937317 163.850098,323.645721 
	C160.016632,323.579865 156.210327,321.931793 151.960785,320.389587 
M382.006592,377.084045 
	C382.289795,373.607178 382.579773,370.130829 382.854523,366.653290 
	C383.230804,361.890717 381.595612,358.428864 377.094666,356.121124 
	C370.616974,352.799805 364.420868,348.933167 357.991455,345.511932 
	C355.398438,344.132111 353.762360,342.750946 354.146667,339.416321 
	C354.286865,338.199463 352.968140,336.251068 351.791870,335.634705 
	C350.941010,335.188812 348.733429,335.997894 347.991730,336.931366 
	C345.875977,339.594025 343.788330,338.949677 340.967560,338.234314 
	C326.835144,334.650116 312.760498,330.460846 298.393311,328.268433 
	C277.110168,325.020660 255.947098,327.498718 235.138779,333.023651 
	C233.569717,333.440247 231.301270,332.814148 229.878983,331.879669 
	C226.295578,329.525269 224.757065,329.977203 223.121918,333.709625 
	C222.324860,335.529022 220.629471,337.353668 218.869263,338.282471 
	C211.690994,342.070312 204.097488,345.124115 197.158051,349.284210 
	C194.574554,350.832977 192.196487,354.512909 191.789673,357.502014 
	C191.109756,362.497742 192.089294,367.719299 192.100571,373.645569 
	C194.523453,380.999634 196.804611,388.406555 199.508560,395.655792 
	C199.960144,396.866516 202.434357,398.326904 203.658203,398.083588 
	C212.016403,396.422180 215.020691,392.991516 216.435608,384.319214 
	C216.620605,383.185303 216.647888,382.025604 217.047180,380.270325 
	C217.629623,379.619781 218.212067,378.969269 219.385498,378.993164 
	C219.385498,383.215485 219.385498,387.437836 219.385498,391.231781 
	C234.649963,391.231781 249.752945,391.165131 264.855042,391.251801 
	C278.163055,391.328186 291.470612,391.745361 304.777374,391.701172 
	C318.580414,391.655304 332.381592,391.189240 346.184998,391.019714 
	C348.901917,390.986359 351.625153,391.466736 354.526611,391.726379 
	C354.318634,388.300415 354.148071,385.490509 354.679474,382.597717 
	C355.470520,383.387451 356.261536,384.177185 356.947296,385.766052 
	C357.864502,388.303711 358.039154,391.924957 359.846588,393.163513 
	C364.207916,396.152191 369.332336,398.027161 374.447174,400.495056 
	C378.095032,393.352509 382.075348,386.357361 382.006592,377.084045 
M204.346558,236.019836 
	C204.501770,236.546753 204.656967,237.073669 205.537811,237.401871 
	C206.008408,237.228317 206.479004,237.054779 207.662445,237.197067 
	C208.445602,239.027557 209.821091,240.832840 209.900314,242.693298 
	C210.133774,248.174606 209.417725,253.715530 209.889420,259.162445 
	C210.427170,265.371887 210.645432,272.039490 213.109467,277.569153 
	C219.899628,292.807251 230.549179,305.445679 243.421494,315.976562 
	C247.733932,319.504608 251.983002,323.824188 258.797913,323.013855 
	C276.573883,320.900177 294.316071,321.636719 312.060272,324.070099 
	C315.459625,324.536285 319.935150,323.577972 322.621399,321.557800 
	C329.357513,316.492004 336.271820,311.162384 341.416901,304.606232 
	C348.117279,296.068207 353.177948,286.243317 359.348236,276.407501 
	C360.807129,273.609436 362.652832,270.938629 363.625793,267.980713 
	C364.808777,264.384460 366.454559,262.090210 371.300262,263.275024 
	C371.300262,253.624023 371.453217,244.548965 371.237915,235.482651 
	C371.124390,230.702682 369.376190,225.433426 377.639862,225.173080 
	C373.900299,216.705170 370.346344,209.021973 363.836823,203.384995 
	C360.250122,200.279068 358.416412,197.654846 361.262299,195.075653 
	C359.755859,191.907913 358.639130,189.559723 358.144562,187.061691 
	C360.070648,186.013245 361.996735,184.964798 363.583954,184.100815 
	C354.624329,179.701523 345.811218,175.788498 337.401581,171.144821 
	C325.684296,164.674744 313.612091,160.046509 299.177399,160.697861 
	C297.008698,160.026978 294.840027,159.356079 292.839050,157.961578 
	C293.549622,156.098038 294.260162,154.234482 294.970703,152.370941 
	C294.689758,151.963638 294.408813,151.556320 294.127869,151.149002 
	C287.261658,153.392181 280.248444,155.269440 273.560638,157.956619 
	C260.637909,163.149017 248.594788,170.039627 240.353745,181.593109 
	C235.978973,187.726273 230.350006,190.923737 223.785400,193.927994 
	C209.321457,200.547333 202.923416,213.451752 198.806015,227.974426 
	C199.592468,228.209427 199.955444,228.452194 200.163849,228.356903 
	C201.063187,227.945679 201.917252,227.435425 203.477097,227.216248 
	C208.476669,229.431335 203.996552,232.888687 204.346558,236.019836 
z"/>
<path fill="#741020" opacity="1.000000" stroke="none" 
	d="
M252.405807,486.123444 
	C241.557846,486.405914 230.709869,486.688416 219.360992,486.575806 
	C218.519333,485.070587 218.187881,483.957520 217.836487,482.850800 
	C213.316086,468.614197 210.222000,454.153015 213.047928,439.187592 
	C214.962830,429.046814 219.626099,419.753632 230.473495,417.679718 
	C241.114975,415.645111 252.226196,415.720428 263.141602,415.555573 
	C276.066986,415.360321 289.016083,416.353577 301.931549,415.993439 
	C315.208160,415.623230 328.414032,413.886505 341.649719,416.960022 
	C350.881470,419.103729 356.549286,424.635651 359.330109,433.353394 
	C364.762329,450.383484 361.555176,466.884155 355.811676,483.138733 
	C355.381226,484.356903 353.829712,485.178925 352.799347,486.185120 
	C342.471802,486.427887 332.144257,486.670624 321.015320,486.652405 
	C309.844025,486.387115 299.474182,486.382751 288.635193,486.299072 
	C276.246002,486.187653 264.325897,486.155548 252.405807,486.123444 
z"/>
<path fill="#F60204" opacity="1.000000" stroke="none" 
	d="
M200.795395,487.002563 
	C196.024139,472.662445 191.865250,458.255096 191.711441,443.086731 
	C191.611298,433.212860 192.521164,423.611328 197.157608,414.476471 
	C202.504440,403.942017 211.110214,397.890961 222.303879,397.310089 
	C238.873093,396.450226 255.525772,397.300354 272.141754,397.208252 
	C285.606506,397.133636 299.068695,396.644073 312.533661,396.523193 
	C324.170776,396.418762 335.826569,396.196198 347.445099,396.697449 
	C368.422577,397.602600 379.132111,410.323151 381.789032,430.758759 
	C384.181732,449.162231 379.927521,466.839752 374.516235,484.270996 
	C374.279266,485.034302 373.648529,485.675323 373.024475,486.690735 
	C370.555267,486.991852 368.262848,486.975555 365.542053,486.510345 
	C365.495117,484.277161 365.732574,482.447296 366.280426,480.715668 
	C371.059814,465.609558 373.025055,450.277557 370.998413,434.430817 
	C369.301758,421.164520 360.383026,410.446747 347.461700,407.096710 
	C334.165558,403.649414 320.613068,404.291687 307.233154,405.652039 
	C293.394653,407.059052 279.733704,406.940887 265.920715,405.614441 
	C252.671936,404.342194 239.306168,403.801788 226.181885,407.097351 
	C218.670990,408.983398 212.417282,412.622498 208.456207,419.730316 
	C202.530426,430.363586 200.941116,441.813995 202.566864,453.549316 
	C204.114563,464.721344 206.772491,475.739532 208.942307,486.825378 
	C206.365067,486.879517 203.787842,486.933655 200.795395,487.002563 
z"/>
<path fill="#431840" opacity="1.000000" stroke="none" 
	d="
M353.086365,486.385284 
	C353.829712,485.178925 355.381226,484.356903 355.811676,483.138733 
	C361.555176,466.884155 364.762329,450.383484 359.330109,433.353394 
	C356.549286,424.635651 350.881470,419.103729 341.649719,416.960022 
	C328.414032,413.886505 315.208160,415.623230 301.931549,415.993439 
	C289.016083,416.353577 276.066986,415.360321 263.141602,415.555573 
	C252.226196,415.720428 241.114975,415.645111 230.473495,417.679718 
	C219.626099,419.753632 214.962830,429.046814 213.047928,439.187592 
	C210.222000,454.153015 213.316086,468.614197 217.836487,482.850800 
	C218.187881,483.957520 218.519333,485.070587 218.911453,486.554138 
	C216.776978,486.996063 214.591095,487.064606 212.155228,486.626465 
	C211.583908,484.333496 211.334839,482.530701 210.929779,480.763672 
	C207.804230,467.128632 204.423981,453.545471 206.967697,439.342651 
	C210.004700,422.385468 218.524704,413.100708 235.463837,410.554077 
	C244.431961,409.205780 253.764175,408.834381 262.789825,409.631622 
	C278.775177,411.043701 294.611267,411.363495 310.591248,409.578461 
	C322.183533,408.283508 333.861725,408.601593 345.250763,411.938080 
	C355.782349,415.023407 361.926056,422.240936 365.187592,432.423523 
	C368.634705,443.185547 368.569214,454.048218 366.457520,464.989410 
	C365.043854,472.313995 363.468475,479.607391 361.965454,486.914734 
	C358.957642,490.556610 356.214081,487.303070 353.086365,486.385284 
z"/>
<path fill="#C00917" opacity="1.000000" stroke="none" 
	d="
M362.360229,486.937103 
	C363.468475,479.607391 365.043854,472.313995 366.457520,464.989410 
	C368.569214,454.048218 368.634705,443.185547 365.187592,432.423523 
	C361.926056,422.240936 355.782349,415.023407 345.250763,411.938080 
	C333.861725,408.601593 322.183533,408.283508 310.591248,409.578461 
	C294.611267,411.363495 278.775177,411.043701 262.789825,409.631622 
	C253.764175,408.834381 244.431961,409.205780 235.463837,410.554077 
	C218.524704,413.100708 210.004700,422.385468 206.967697,439.342651 
	C204.423981,453.545471 207.804230,467.128632 210.929779,480.763672 
	C211.334839,482.530701 211.583908,484.333496 211.835220,486.520447 
	C211.056335,486.938751 210.347458,486.956360 209.290436,486.899658 
	C206.772491,475.739532 204.114563,464.721344 202.566864,453.549316 
	C200.941116,441.813995 202.530426,430.363586 208.456207,419.730316 
	C212.417282,412.622498 218.670990,408.983398 226.181885,407.097351 
	C239.306168,403.801788 252.671936,404.342194 265.920715,405.614441 
	C279.733704,406.940887 293.394653,407.059052 307.233154,405.652039 
	C320.613068,404.291687 334.165558,403.649414 347.461700,407.096710 
	C360.383026,410.446747 369.301758,421.164520 370.998413,434.430817 
	C373.025055,450.277557 371.059814,465.609558 366.280426,480.715668 
	C365.732574,482.447296 365.495117,484.277161 365.114014,486.450256 
	C364.327850,486.879211 363.541412,486.919342 362.360229,486.937103 
z"/>
<path fill="#7E6C83" opacity="1.000000" stroke="none" 
	d="
M450.637360,325.173462 
	C450.981995,349.256012 451.009888,373.441681 450.934387,397.627014 
	C450.928070,399.650391 450.225342,401.671600 449.478027,403.831238 
	C449.071167,380.582306 448.987762,357.195862 449.051788,333.809814 
	C449.059570,330.964264 449.860352,328.120880 450.637360,325.173462 
z"/>
<path fill="#BFB3C2" opacity="1.000000" stroke="none" 
	d="
M242.888611,154.688904 
	C242.050903,155.319260 240.994385,155.902603 239.937622,155.903015 
	C212.799423,155.913803 185.661194,155.863754 158.389847,155.417480 
	C176.838943,154.691269 195.420258,154.241058 214.003815,154.113922 
	C221.939194,154.059631 229.877869,154.723648 237.818146,154.956161 
	C239.428223,155.003311 241.052155,154.577850 242.888611,154.688904 
z"/>
<path fill="#B2A6B6" opacity="1.000000" stroke="none" 
	d="
M126.584579,182.197479 
	C126.997353,228.028214 127.004150,274.027679 126.974854,320.493378 
	C126.621872,319.958740 126.028908,318.958130 126.027763,317.956909 
	C125.976440,273.084198 125.976685,228.211441 125.980209,183.338684 
	C125.980240,183.014526 126.109612,182.690384 126.584579,182.197479 
z"/>
<path fill="#5D595F" opacity="1.000000" stroke="none" 
	d="
M443.575958,284.108063 
	C443.406128,251.639633 443.259338,218.739716 443.131744,185.839722 
	C443.129211,185.187729 443.350952,184.534836 443.615662,183.509766 
	C443.709259,216.650314 443.655212,250.163437 443.575958,284.108063 
z"/>
<path fill="#C3B8C7" opacity="1.000000" stroke="none" 
	d="
M417.435730,155.612640 
	C403.395050,155.940765 389.154358,155.955734 374.454041,155.617828 
	C373.989136,154.889954 373.983917,154.514984 373.978729,154.139999 
	C385.632111,154.084122 397.286163,153.943085 408.938385,154.034698 
	C411.707306,154.056458 414.470093,154.857101 417.435730,155.612640 
z"/>
<path fill="#C3B8C7" opacity="1.000000" stroke="none" 
	d="
M348.018280,155.829422 
	C334.143311,155.769791 320.268372,155.710144 306.177734,155.268600 
	C319.670868,154.595596 333.379669,154.304504 347.547058,154.358246 
	C348.009827,155.078522 348.014038,155.453964 348.018280,155.829422 
z"/>
<path fill="#CDCCCE" opacity="1.000000" stroke="none" 
	d="
M348.387390,155.884888 
	C348.014038,155.453964 348.009827,155.078522 348.013367,154.421539 
	C356.366272,154.088272 364.711395,154.036530 373.517639,154.062408 
	C373.983917,154.514984 373.989136,154.889954 373.989197,155.546173 
	C369.629028,155.866058 365.274017,155.904709 360.339752,155.816467 
	C359.480408,155.610123 359.222748,155.656204 358.987457,155.827820 
	C358.544891,155.864044 358.102356,155.900253 357.212097,155.812042 
	C356.483551,155.608490 356.225098,155.654724 355.989044,155.826324 
	C354.923218,155.863190 353.857391,155.900055 352.276611,155.811798 
	C351.480804,155.608444 351.222717,155.655411 350.987427,155.827576 
	C350.243774,155.865173 349.500153,155.902771 348.387390,155.884888 
z"/>
<path fill="#7E6C83" opacity="1.000000" stroke="none" 
	d="
M83.407570,405.159546 
	C77.744247,405.385620 71.620819,405.600220 65.318756,405.491028 
	C71.075905,405.160828 77.011688,405.154419 83.407570,405.159546 
z"/>
<path fill="#5D595F" opacity="1.000000" stroke="none" 
	d="
M252.745941,486.273315 
	C264.325897,486.155548 276.246002,486.187653 288.641174,486.393127 
	C289.116272,486.566467 289.058350,486.746552 289.058350,486.746521 
	C277.067596,486.638733 265.076843,486.530945 252.745941,486.273315 
z"/>
<path fill="#776C7B" opacity="1.000000" stroke="none" 
	d="
M289.520905,486.796753 
	C289.058350,486.746552 289.116272,486.566467 289.110291,486.472412 
	C299.474182,486.382751 309.844025,486.387115 320.571167,486.587952 
	C310.613434,486.805267 300.298431,486.826141 289.520905,486.796753 
z"/>
<path fill="#7F534A" opacity="1.000000" stroke="none" 
	d="
M358.944244,276.972229 
	C353.177948,286.243317 348.117279,296.068207 341.416901,304.606232 
	C336.271820,311.162384 329.357513,316.492004 322.621399,321.557800 
	C319.935150,323.577972 315.459625,324.536285 312.060272,324.070099 
	C294.316071,321.636719 276.573883,320.900177 258.797913,323.013855 
	C251.983002,323.824188 247.733932,319.504608 243.421494,315.976562 
	C230.549179,305.445679 219.899628,292.807251 213.109467,277.569153 
	C210.645432,272.039490 210.427170,265.371887 209.889420,259.162445 
	C209.417725,253.715530 210.133774,248.174606 209.900314,242.693298 
	C209.821091,240.832840 208.445602,239.027557 207.402359,236.719330 
	C213.837463,226.489594 223.222580,220.691483 235.024841,218.446304 
	C234.823837,217.937729 234.622818,217.429153 234.421799,216.920578 
	C229.953262,217.308868 225.484726,217.697159 220.914673,218.094284 
	C221.072876,217.432343 221.057922,217.052063 221.238937,216.835861 
	C221.552170,216.461792 221.946838,216.114090 222.376617,215.885696 
	C230.078003,211.792953 238.049606,209.610229 246.890320,211.648758 
	C248.434189,212.004745 251.443588,211.100342 251.972443,209.949326 
	C255.880692,201.443069 262.346924,195.225067 269.756927,190.094254 
	C274.215729,187.006927 279.553986,185.189819 284.497040,182.801880 
	C284.929688,183.302917 285.362366,183.803955 285.795044,184.304977 
	C284.023285,188.143051 282.251495,191.981140 280.011902,196.832626 
	C292.153381,191.296463 303.480591,187.733276 316.982635,190.943634 
	C311.464661,193.579742 306.984833,195.719910 302.505035,197.860062 
	C302.671753,198.376633 302.838440,198.893204 303.005157,199.409775 
	C322.388123,203.720184 340.963806,209.410019 351.499969,228.836655 
	C351.942810,228.493286 352.385651,228.149918 352.828491,227.806549 
	C352.828491,223.232849 352.828491,218.659149 352.828491,214.085449 
	C353.391754,213.963303 353.955048,213.841141 354.518311,213.718994 
	C356.014038,217.482452 358.138885,221.124878 358.890350,225.031509 
	C361.391327,238.032944 359.953857,250.853775 356.060913,263.458527 
	C354.384460,268.886658 352.924469,274.381653 351.060150,280.919312 
	C354.561890,279.166229 356.753052,278.069244 358.944244,276.972229 
z"/>
<path fill="#C3B8C7" opacity="1.000000" stroke="none" 
	d="
M353.977478,382.680634 
	C354.148071,385.490509 354.318634,388.300415 354.526611,391.726379 
	C351.625153,391.466736 348.901917,390.986359 346.184998,391.019714 
	C332.381592,391.189240 318.580414,391.655304 304.777374,391.701172 
	C291.470612,391.745361 278.163055,391.328186 264.855042,391.251801 
	C249.752945,391.165131 234.649963,391.231781 219.385498,391.231781 
	C219.385498,387.437836 219.385498,383.215485 219.166260,378.339050 
	C225.613647,362.805145 236.450302,352.192261 251.944992,347.055145 
	C259.595551,344.518677 267.630981,342.839264 275.624481,341.698547 
	C298.516571,338.431793 319.332825,343.177612 336.623596,359.372742 
	C343.772400,366.068512 350.569733,373.144073 353.977478,382.680634 
z"/>
<path fill="#9D6C4C" opacity="1.000000" stroke="none" 
	d="
M359.146240,276.689880 
	C356.753052,278.069244 354.561890,279.166229 351.060150,280.919312 
	C352.924469,274.381653 354.384460,268.886658 356.060913,263.458527 
	C359.953857,250.853775 361.391327,238.032944 358.890350,225.031509 
	C358.138885,221.124878 356.014038,217.482452 354.518311,213.718994 
	C353.955048,213.841141 353.391754,213.963303 352.828491,214.085449 
	C352.828491,218.659149 352.828491,223.232849 352.828491,227.806549 
	C352.385651,228.149918 351.942810,228.493286 351.499969,228.836655 
	C340.963806,209.410019 322.388123,203.720184 303.005157,199.409775 
	C302.838440,198.893204 302.671753,198.376633 302.505035,197.860062 
	C306.984833,195.719910 311.464661,193.579742 316.982635,190.943634 
	C303.480591,187.733276 292.153381,191.296463 280.011902,196.832626 
	C282.251495,191.981140 284.023285,188.143051 285.795044,184.304977 
	C285.362366,183.803955 284.929688,183.302917 284.497040,182.801880 
	C279.553986,185.189819 274.215729,187.006927 269.756927,190.094254 
	C262.346924,195.225067 255.880692,201.443069 251.972443,209.949326 
	C251.443588,211.100342 248.434189,212.004745 246.890320,211.648758 
	C238.049606,209.610229 230.078003,211.792953 222.376617,215.885696 
	C221.946838,216.114090 221.552170,216.461792 221.238937,216.835861 
	C221.057922,217.052063 221.072876,217.432343 220.914673,218.094284 
	C225.484726,217.697159 229.953262,217.308868 234.421799,216.920578 
	C234.622818,217.429153 234.823837,217.937729 235.024841,218.446304 
	C223.222580,220.691483 213.837463,226.489594 207.045929,236.561417 
	C206.479004,237.054779 206.008408,237.228317 205.145233,237.017303 
	C204.697250,236.315720 204.641861,235.998688 204.586456,235.681641 
	C203.996552,232.888687 208.476669,229.431335 203.176361,226.713440 
	C208.576752,210.505447 218.505569,199.008453 234.856644,193.743713 
	C236.274353,193.287231 237.427856,191.813812 238.546692,190.660126 
	C242.915070,186.155853 246.827759,181.116623 251.626068,177.140610 
	C263.547272,167.262344 277.960144,162.558212 292.671326,158.685181 
	C294.840027,159.356079 297.008698,160.026978 299.912201,160.943161 
	C309.393890,164.349808 318.417786,166.915665 326.817566,170.823227 
	C337.320770,175.709290 347.310852,181.698532 357.522430,187.211548 
	C358.639130,189.559723 359.755859,191.907913 361.262299,195.075653 
	C358.416412,197.654846 360.250122,200.279068 363.836823,203.384995 
	C370.346344,209.021973 373.900299,216.705170 377.639862,225.173080 
	C369.376190,225.433426 371.124390,230.702682 371.237915,235.482651 
	C371.453217,244.548965 371.300262,253.624023 371.300262,263.275024 
	C366.454559,262.090210 364.808777,264.384460 363.625793,267.980713 
	C362.652832,270.938629 360.807129,273.609436 359.146240,276.689880 
z"/>
<path fill="#FCFBFC" opacity="1.000000" stroke="none" 
	d="
M354.328491,382.639160 
	C350.569733,373.144073 343.772400,366.068512 336.623596,359.372742 
	C319.332825,343.177612 298.516571,338.431793 275.624481,341.698547 
	C267.630981,342.839264 259.595551,344.518677 251.944992,347.055145 
	C236.450302,352.192261 225.613647,362.805145 218.870758,378.001831 
	C218.212067,378.969269 217.629623,379.619781 216.497330,380.605316 
	C212.223923,381.070892 208.063721,382.314484 204.881241,381.065887 
	C200.335602,379.282532 196.505814,375.674561 192.370316,372.845795 
	C192.089294,367.719299 191.109756,362.497742 191.789673,357.502014 
	C192.196487,354.512909 194.574554,350.832977 197.158051,349.284210 
	C204.097488,345.124115 211.690994,342.070312 218.869263,338.282471 
	C220.629471,337.353668 222.324860,335.529022 223.121918,333.709625 
	C224.757065,329.977203 226.295578,329.525269 229.878983,331.879669 
	C231.301270,332.814148 233.569717,333.440247 235.138779,333.023651 
	C255.947098,327.498718 277.110168,325.020660 298.393311,328.268433 
	C312.760498,330.460846 326.835144,334.650116 340.967560,338.234314 
	C343.788330,338.949677 345.875977,339.594025 347.991730,336.931366 
	C348.733429,335.997894 350.941010,335.188812 351.791870,335.634705 
	C352.968140,336.251068 354.286865,338.199463 354.146667,339.416321 
	C353.762360,342.750946 355.398438,344.132111 357.991455,345.511932 
	C364.420868,348.933167 370.616974,352.799805 377.094666,356.121124 
	C381.595612,358.428864 383.230804,361.890717 382.854523,366.653290 
	C382.579773,370.130829 382.289795,373.607178 381.586090,377.567078 
	C376.205505,382.286560 371.171143,386.262970 363.970398,385.261139 
	C361.694855,384.944489 359.360199,385.053009 357.052582,384.966919 
	C356.261536,384.177185 355.470520,383.387451 354.328491,382.639160 
z"/>
<path fill="#969596" opacity="1.000000" stroke="none" 
	d="
M247.517670,165.609192 
	C244.067261,169.147751 240.802185,172.902679 237.063812,176.105103 
	C235.790894,177.195511 233.327621,177.181122 231.406799,177.186966 
	C209.085815,177.254852 186.764511,177.210602 164.443359,177.237610 
	C153.077774,177.251373 149.096405,181.224442 149.088974,192.619965 
	C149.063507,231.598755 149.002869,270.577972 149.203796,309.555756 
	C149.222427,313.171661 150.999954,316.778534 151.765320,320.655304 
	C149.515137,320.292450 147.257965,320.013702 145.446289,318.965179 
	C141.190750,316.502258 137.148178,313.671326 133.019409,310.989349 
	C132.810486,308.671448 132.421539,306.353668 132.419434,304.035583 
	C132.383469,264.231262 132.269638,224.425980 132.561951,184.623764 
	C132.596893,179.864594 134.898392,175.122070 136.839294,170.175430 
	C138.488129,169.765381 139.642807,169.823044 140.374557,169.294800 
	C145.806152,165.373993 151.954422,164.822968 158.395706,164.846741 
	C185.640747,164.947296 212.886398,164.871109 240.131714,164.920944 
	C242.594101,164.925446 245.055710,165.369339 247.517670,165.609192 
z"/>
<path fill="#969596" opacity="1.000000" stroke="none" 
	d="
M435.200500,174.000732 
	C435.912537,176.486420 437.238678,178.970535 437.245117,181.458038 
	C437.354187,223.655441 437.300415,265.853271 437.271332,308.050995 
	C437.270874,308.711121 437.128448,309.371216 436.654724,310.576721 
	C430.679718,315.628662 425.243195,320.401306 417.599854,321.009705 
	C418.620544,316.739258 420.501709,312.473999 420.527466,308.197540 
	C420.758026,269.896667 420.668457,231.593796 420.658417,193.291519 
	C420.654968,180.232971 417.594757,177.238907 404.330963,177.230515 
	C395.338257,177.224823 386.287872,176.582443 377.366150,177.378174 
	C363.436554,178.620575 351.606018,173.791031 340.444733,166.054230 
	C341.582214,165.277206 342.555176,164.936539 343.528503,164.935471 
	C367.839600,164.909012 392.152130,164.791962 416.460419,165.056976 
	C420.128479,165.096970 423.794830,166.888535 427.426422,167.987427 
	C429.132721,168.503738 430.754486,169.299255 432.414581,169.968246 
	C432.683655,169.870178 432.886261,169.947128 433.211853,170.615814 
	C433.628143,171.370117 433.854980,171.707672 434.081818,172.045227 
	C434.081818,172.045242 433.974609,172.009277 434.075867,172.249573 
	C434.518250,172.993500 434.859375,173.497116 435.200500,174.000732 
z"/>
<path fill="#979697" opacity="1.000000" stroke="none" 
	d="
M456.234283,397.884735 
	C456.143005,376.218964 456.051727,354.553223 456.421631,332.379700 
	C470.942413,328.660278 485.023132,327.748932 499.136902,331.956787 
	C499.125397,332.744415 499.123535,333.058655 499.147522,333.786835 
	C499.029297,336.138794 498.885162,338.076843 498.414948,340.157135 
	C495.138702,344.039185 495.123291,348.378632 498.087799,352.458069 
	C498.333954,354.708954 498.539551,356.509308 498.688568,358.754028 
	C498.609650,369.140259 498.587311,379.082062 498.565002,389.023895 
	C498.418884,391.719574 498.272736,394.415222 497.683960,397.590454 
	C495.496613,399.353455 493.751892,400.636902 491.538666,401.947510 
	C479.408630,401.033783 467.128601,405.360535 456.234283,397.884735 
M483.642761,337.741241 
	C478.732635,334.339233 473.269958,333.895081 469.377899,337.006012 
	C465.608398,340.018982 463.906677,344.083679 465.182526,348.921936 
	C466.502716,353.928192 470.003326,356.913788 475.017578,357.553925 
	C479.971130,358.186310 483.779785,355.579926 486.119202,351.460693 
	C488.777954,346.779175 487.969940,342.196289 483.642761,337.741241 
M486.468353,374.463043 
	C486.156036,373.177979 486.037079,371.804504 485.496979,370.623627 
	C483.476501,366.205963 479.933777,364.016449 475.097137,364.462036 
	C470.206665,364.912628 467.138184,367.754211 466.255402,372.588409 
	C465.371857,377.426910 467.442902,381.060089 471.582062,383.470520 
	C477.606781,386.979065 483.985779,383.381897 486.468353,374.463043 
z"/>
<path fill="#CF9C72" opacity="1.000000" stroke="none" 
	d="
M386.102356,422.938904 
	C384.472961,418.911438 382.843567,414.883942 381.612732,410.478882 
	C405.269714,411.018707 428.530029,411.891388 451.786133,412.864380 
	C484.012665,414.212677 516.236023,415.636414 548.460693,417.027832 
	C548.689819,418.119110 548.918945,419.210388 548.694092,420.741821 
	C544.832458,421.767212 541.425842,422.854919 538.016846,422.862305 
	C487.378876,422.971985 436.740570,422.938507 386.102356,422.938904 
z"/>
<path fill="#CF9C72" opacity="1.000000" stroke="none" 
	d="
M26.071468,420.960083 
	C26.076120,419.813904 26.080774,418.667725 26.794785,417.278839 
	C29.646553,416.735382 31.781504,416.247498 33.932487,416.161713 
	C69.348488,414.749878 104.766617,413.391510 140.184036,412.014923 
	C155.816452,411.407349 171.448334,410.785889 187.253342,410.267029 
	C187.919983,410.279816 188.413727,410.196289 189.377563,410.131409 
	C190.785995,410.238281 191.724335,410.326538 192.662689,410.414795 
	C191.185440,414.369720 189.708206,418.324677 187.586884,422.591980 
	C136.542953,422.914948 86.143021,422.961792 35.743423,422.851318 
	C32.518070,422.844238 29.295389,421.618774 26.071468,420.960083 
z"/>
<path fill="#776C7B" opacity="1.000000" stroke="none" 
	d="
M417.278992,321.119019 
	C425.243195,320.401306 430.679718,315.628662 436.585052,311.038940 
	C438.758240,326.704224 432.748047,336.808014 419.758545,339.653870 
	C417.991180,340.041077 416.135712,340.167572 414.320404,340.172058 
	C398.028717,340.212341 381.736420,340.135284 365.445465,340.251190 
	C362.023529,340.275543 360.067017,339.439941 358.931763,335.797668 
	C357.134277,330.030823 353.189087,328.817047 345.444031,330.960938 
	C344.951813,330.942871 344.737152,330.687866 344.737152,330.687866 
	C347.467133,325.800781 351.265198,323.512329 357.221619,323.644623 
	C373.469971,324.005615 389.734039,323.920349 405.985992,323.653259 
	C409.655670,323.592957 413.301392,322.075195 417.278992,321.119019 
z"/>
<path fill="#786C7C" opacity="1.000000" stroke="none" 
	d="
M132.911835,311.443726 
	C137.148178,313.671326 141.190750,316.502258 145.446289,318.965179 
	C147.257965,320.013702 149.515137,320.292450 151.980682,320.966553 
	C156.210327,321.931793 160.016632,323.579865 163.850098,323.645721 
	C180.827728,323.937317 197.813232,323.748352 214.795639,323.808380 
	C216.986374,323.816132 219.175552,324.261810 221.987274,324.573578 
	C219.207886,330.121307 216.658737,333.855316 211.323792,336.097687 
	C204.398743,339.008423 197.623932,340.569550 190.122772,340.292389 
	C179.980362,339.917633 169.813705,340.202942 159.657440,340.199158 
	C139.819901,340.191772 131.857224,331.797852 132.911835,311.443726 
z"/>
<path fill="#979697" opacity="1.000000" stroke="none" 
	d="
M500.250977,397.883759 
	C500.181610,395.218079 500.112213,392.552368 500.043518,388.980652 
	C500.010834,378.061829 499.977509,368.049042 500.032654,357.571747 
	C500.053467,349.147095 499.985809,341.186951 499.944031,332.872864 
	C499.983826,332.282715 499.997772,332.046509 500.366150,331.900879 
	C509.169769,335.711426 517.618958,339.431427 526.088135,343.610229 
	C526.112671,348.046936 525.965149,352.031952 526.152283,356.001221 
	C526.602478,365.549652 524.887390,374.575378 519.253052,382.420105 
	C514.361389,389.230682 509.558197,396.393097 500.250977,397.883759 
z"/>
<path fill="#9B6E63" opacity="1.000000" stroke="none" 
	d="
M386.082947,423.335083 
	C436.740570,422.938507 487.378876,422.971985 538.016846,422.862305 
	C541.425842,422.854919 544.832458,421.767212 548.614502,421.087433 
	C549.485352,426.083557 546.823792,428.342926 542.061157,428.688843 
	C541.066467,428.761047 540.064819,428.756439 539.066406,428.756531 
	C490.292297,428.760498 441.518188,428.736511 392.744171,428.810303 
	C388.973846,428.815979 386.027222,428.413483 386.082947,423.335083 
z"/>
<path fill="#9B6E63" opacity="1.000000" stroke="none" 
	d="
M25.984325,421.348602 
	C29.295389,421.618774 32.518070,422.844238 35.743423,422.851318 
	C86.143021,422.961792 136.542953,422.914948 187.401978,422.910675 
	C188.241364,427.198578 186.303955,428.818268 182.009918,428.811005 
	C132.920181,428.727692 83.830238,428.773468 34.740398,428.732666 
	C28.422100,428.727417 26.993540,427.457092 25.984325,421.348602 
z"/>
<path fill="#796F7D" opacity="1.000000" stroke="none" 
	d="
M500.194336,398.325653 
	C509.558197,396.393097 514.361389,389.230682 519.253052,382.420105 
	C524.887390,374.575378 526.602478,365.549652 526.152283,356.001221 
	C525.965149,352.031952 526.112671,348.046936 526.422363,343.503113 
	C527.348083,342.603241 527.959473,342.269348 528.570801,341.935486 
	C529.293457,343.580017 530.631348,345.219696 530.644409,346.869781 
	C530.786072,364.857269 530.646057,382.846924 530.762756,400.834778 
	C530.792480,405.412933 529.406494,407.595490 524.404236,407.179260 
	C518.771545,406.710510 513.082825,406.963593 507.426910,406.713470 
	C500.185638,406.393188 500.077820,406.189911 500.194336,398.325653 
z"/>
<path fill="#7C7AB6" opacity="1.000000" stroke="none" 
	d="
M154.952042,192.994705 
	C154.455917,184.400711 155.823990,182.871368 164.140350,182.866104 
	C184.737823,182.853088 205.335297,182.860840 225.932770,182.860275 
	C227.554062,182.860229 229.175339,182.860260 230.796631,182.860260 
	C230.920074,183.252991 231.043518,183.645706 231.166962,184.038437 
	C225.155121,187.370865 219.143265,190.703293 212.362518,193.999939 
	C208.806305,193.643173 206.020493,193.060181 203.231461,193.044434 
	C187.138748,192.953629 171.045258,192.996872 154.952042,192.994705 
z"/>
<path fill="#CDB7AD" opacity="1.000000" stroke="none" 
	d="
M292.755188,158.323380 
	C277.960144,162.558212 263.547272,167.262344 251.626068,177.140610 
	C246.827759,181.116623 242.915070,186.155853 238.546692,190.660126 
	C237.427856,191.813812 236.274353,193.287231 234.856644,193.743713 
	C218.505569,199.008453 208.576752,210.505447 202.831711,226.585907 
	C201.917252,227.435425 201.063187,227.945679 200.163849,228.356903 
	C199.955444,228.452194 199.592468,228.209427 198.806015,227.974426 
	C202.923416,213.451752 209.321457,200.547333 223.785400,193.927994 
	C230.350006,190.923737 235.978973,187.726273 240.353745,181.593109 
	C248.594788,170.039627 260.637909,163.149017 273.560638,157.956619 
	C280.248444,155.269440 287.261658,153.392181 294.127869,151.149002 
	C294.408813,151.556320 294.689758,151.963638 294.970703,152.370941 
	C294.260162,154.234482 293.549622,156.098038 292.755188,158.323380 
z"/>
<path fill="#7373B3" opacity="1.000000" stroke="none" 
	d="
M154.875244,193.450928 
	C171.045258,192.996872 187.138748,192.953629 203.231461,193.044434 
	C206.020493,193.060181 208.806305,193.643173 212.038742,194.082306 
	C209.487778,197.658844 206.491684,201.117203 202.761978,204.778366 
	C186.339951,204.986832 170.651550,204.992523 154.963135,204.998215 
	C154.908234,201.301193 154.853333,197.604187 154.875244,193.450928 
z"/>
<path fill="#7978B5" opacity="1.000000" stroke="none" 
	d="
M374.730347,195.485947 
	C377.545288,189.234924 370.743195,190.992249 368.855560,188.336105 
	C372.507385,185.026978 376.105713,182.327316 381.783905,182.705292 
	C390.205353,183.265915 398.691895,182.827835 407.150604,182.856461 
	C413.875336,182.879211 415.132599,184.186417 415.202148,191.115738 
	C415.218781,192.773209 415.146423,194.431595 414.645111,196.635620 
	C402.176788,197.423553 390.178711,197.732681 378.179321,197.798676 
	C377.033936,197.804993 375.880219,196.293045 374.730347,195.485947 
z"/>
<path fill="#BE9285" opacity="1.000000" stroke="none" 
	d="
M204.924026,281.278412 
	C206.314133,281.605682 208.534531,281.495422 208.971695,282.324890 
	C217.605637,298.707611 229.519928,312.285828 243.840698,323.870117 
	C243.938141,323.948944 243.910156,324.182800 243.940735,324.344269 
	C235.161148,329.738647 230.900513,328.462219 223.030396,318.232849 
	C221.954788,313.108582 220.914062,308.544525 216.346832,306.025543 
	C212.792114,305.189453 209.237411,304.353333 205.496384,303.135803 
	C205.131409,302.533936 204.952728,302.313446 204.774063,302.092987 
	C204.774063,302.092987 204.903305,302.244904 204.894836,301.885437 
	C202.130020,294.771637 202.933655,288.023926 204.924026,281.278412 
z"/>
<path fill="#5F5FA7" opacity="1.000000" stroke="none" 
	d="
M197.052734,216.012863 
	C195.862823,219.808823 194.672897,223.604767 192.872894,227.752625 
	C179.830078,228.068130 167.397324,228.031723 154.964600,227.995316 
	C154.921738,224.299835 154.878876,220.604340 155.372009,216.453094 
	C169.622910,216.002502 183.337830,216.007690 197.052734,216.012863 
z"/>
<path fill="#170D67" opacity="1.000000" stroke="none" 
	d="
M415.003662,306.970581 
	C415.017639,307.966187 415.048462,308.961914 415.042908,309.957428 
	C415.003815,316.988495 414.000275,318.047333 406.970886,318.064178 
	C392.034454,318.099945 377.097839,318.088898 362.161377,318.058136 
	C360.424622,318.054565 358.688416,317.805695 356.164276,317.609222 
	C358.259155,313.795044 356.885620,308.303528 363.906860,310.045349 
	C369.699249,310.909882 375.122375,312.170074 380.247253,311.412476 
	C386.298035,310.518036 392.090942,307.879089 398.361755,306.186035 
	C404.153168,306.573944 409.578430,306.772278 415.003662,306.970581 
M360.504608,311.525665 
	C360.504608,311.525665 360.490265,311.485504 360.504608,311.525665 
z"/>
<path fill="#6A69AB" opacity="1.000000" stroke="none" 
	d="
M197.264679,215.736603 
	C183.337830,216.007690 169.622910,216.002502 155.436432,215.995636 
	C154.914917,212.631226 154.864960,209.268509 154.889069,205.451996 
	C170.651550,204.992523 186.339951,204.986832 202.494019,204.980545 
	C201.132004,208.473404 199.304321,211.966873 197.264679,215.736603 
z"/>
<path fill="#706FAF" opacity="1.000000" stroke="none" 
	d="
M374.399292,195.591553 
	C375.880219,196.293045 377.033936,197.804993 378.179321,197.798676 
	C390.178711,197.732681 402.176788,197.423553 414.581665,197.088318 
	C415.023621,200.689316 415.059113,204.383682 414.570282,208.537079 
	C401.370575,208.994095 388.695160,208.992096 376.019775,208.990082 
	C373.516266,205.898727 371.012756,202.807358 368.047516,199.145813 
	C370.236755,197.891830 372.152466,196.794510 374.399292,195.591553 
z"/>
<path fill="#5453A0" opacity="1.000000" stroke="none" 
	d="
M154.906082,228.456238 
	C167.397324,228.031723 179.830078,228.068130 192.692673,228.074799 
	C193.739624,231.015564 190.612839,235.324112 196.703949,236.831635 
	C197.541550,237.433807 197.831604,237.738312 198.121643,238.042831 
	C198.096497,238.778214 198.071350,239.513580 197.529327,240.617004 
	C183.003922,240.988266 168.995377,240.991470 154.986847,240.994659 
	C154.940430,236.968826 154.894012,232.943008 154.906082,228.456238 
z"/>
<path fill="#E3CBBA" opacity="1.000000" stroke="none" 
	d="
M548.327148,416.662170 
	C516.236023,415.636414 484.012665,414.212677 451.786133,412.864380 
	C428.530029,411.891388 405.269714,411.018707 381.565369,410.139709 
	C380.726929,409.659119 380.334442,409.140076 380.108154,408.195190 
	C380.538422,407.591705 380.782532,407.389923 381.006653,407.163940 
	C393.011078,407.553345 405.015533,407.942749 417.701965,408.681641 
	C421.244171,409.064087 424.104340,409.097015 426.964508,409.129944 
	C432.981720,409.259064 438.998962,409.388153 445.730774,409.870026 
	C449.942719,410.221100 453.440033,410.219391 456.937378,410.217651 
	C478.246063,410.935730 499.554779,411.654053 520.863464,412.371643 
	C527.524658,412.595947 534.211609,412.548157 540.834106,413.178680 
	C543.363281,413.419464 545.744812,415.211456 548.327148,416.662170 
z"/>
<path fill="#363591" opacity="1.000000" stroke="none" 
	d="
M154.976044,269.990997 
	C154.952026,267.618622 154.928024,265.246277 155.357971,262.389771 
	C159.090881,261.603943 162.367828,261.070374 165.649216,261.041534 
	C178.369415,260.929688 191.091034,260.978485 203.812134,260.967468 
	C203.955917,264.002289 204.099716,267.037079 203.751663,270.528748 
	C187.165222,270.654053 171.070633,270.322540 154.976044,269.990997 
z"/>
<path fill="#170D67" opacity="1.000000" stroke="none" 
	d="
M211.235352,310.807800 
	C212.297073,312.740143 213.358810,314.672455 214.420532,316.604797 
	C212.430054,317.095520 210.443008,317.994843 208.448547,318.011597 
	C193.951752,318.133453 179.453445,318.081696 164.955627,318.076263 
	C155.295471,318.072632 154.940308,317.705109 155.391602,307.419434 
	C158.683899,306.985931 161.522903,307.249817 164.291321,306.920441 
	C166.898514,306.610291 169.431335,305.674896 172.341217,305.094971 
	C179.457291,310.469635 187.548416,312.065887 195.736038,312.479370 
	C200.861252,312.738190 206.066193,311.418976 211.235352,310.807800 
z"/>
<path fill="#3F3F94" opacity="1.000000" stroke="none" 
	d="
M203.852875,260.520020 
	C191.091034,260.978485 178.369415,260.929688 165.649216,261.041534 
	C162.367828,261.070374 159.090881,261.603943 155.390228,261.945984 
	C154.948105,258.957001 154.927673,255.927643 155.365662,252.402802 
	C159.102585,251.605194 162.385544,251.004532 165.658752,251.053726 
	C178.356171,251.244476 191.050461,251.641968 203.745941,251.962463 
	C203.795166,254.665833 203.844391,257.369171 203.852875,260.520020 
z"/>
<path fill="#E3CBBA" opacity="1.000000" stroke="none" 
	d="
M187.080460,410.170715 
	C171.448334,410.785889 155.816452,411.407349 140.184036,412.014923 
	C104.766617,413.391510 69.348488,414.749878 33.932487,416.161713 
	C31.781504,416.247498 29.646553,416.735382 27.049747,417.040009 
	C28.866007,415.715881 31.089098,413.325867 33.414570,413.221710 
	C61.337601,411.971039 89.275803,411.058990 117.989197,410.323456 
	C122.206985,410.311310 125.645615,410.034210 129.084244,409.757141 
	C135.422333,409.489105 141.760406,409.221100 148.886124,409.207367 
	C152.133865,409.139648 154.593994,408.817657 157.054108,408.495667 
	C168.296631,408.017426 179.537964,407.507202 190.782913,407.095337 
	C192.479736,407.033203 195.616852,406.209503 192.942429,410.161591 
	C191.724335,410.326538 190.785995,410.238281 189.214142,410.001770 
	C188.080582,409.959259 187.580521,410.065002 187.080460,410.170715 
z"/>
<path fill="#6564A9" opacity="1.000000" stroke="none" 
	d="
M376.070007,209.343384 
	C388.695160,208.992096 401.370575,208.994095 414.513092,208.994507 
	C415.008423,213.017883 415.036652,217.042831 414.545898,221.530579 
	C403.942657,222.013184 393.858368,222.032990 383.774109,222.052795 
	C381.222839,217.934082 378.671539,213.815384 376.070007,209.343384 
z"/>
<path fill="#484999" opacity="1.000000" stroke="none" 
	d="
M203.789581,251.595322 
	C191.050461,251.641968 178.356171,251.244476 165.658752,251.053726 
	C162.385544,251.004532 159.102585,251.605194 155.404175,251.949554 
	C154.953049,248.630585 154.921829,245.269379 154.938736,241.451416 
	C168.995377,240.991470 183.003922,240.988266 197.475082,240.981262 
	C198.577957,243.508957 197.088791,247.062592 201.830704,248.112305 
	C202.864273,248.554474 203.327301,248.783432 203.790344,249.012375 
	C203.804642,249.750977 203.818939,250.489578 203.789581,251.595322 
z"/>
<path fill="#CDCCCE" opacity="1.000000" stroke="none" 
	d="
M247.850922,165.503967 
	C245.055710,165.369339 242.594101,164.925446 240.131714,164.920944 
	C212.886398,164.871109 185.640747,164.947296 158.395706,164.846741 
	C151.954422,164.822968 145.806152,165.373993 140.374557,169.294800 
	C139.642807,169.823044 138.488129,169.765381 137.131058,169.982635 
	C140.421051,164.245667 146.015411,161.123016 152.492294,161.074615 
	C185.918991,160.824661 219.348663,160.971970 252.777283,161.003510 
	C253.018921,161.003738 253.260269,161.322281 254.183212,161.971664 
	C251.986816,163.226395 250.085495,164.312576 247.850922,165.503967 
z"/>
<path fill="#232385" opacity="1.000000" stroke="none" 
	d="
M195.253906,281.297333 
	C194.452606,284.582672 193.651321,287.868011 192.361023,291.568176 
	C188.425385,291.987854 184.974747,291.887756 181.533020,292.019867 
	C174.682846,292.282898 167.837570,292.673615 160.708862,292.821625 
	C158.595856,289.756409 156.764282,286.881165 154.932709,284.005920 
	C154.927689,282.932434 154.922684,281.858978 155.413513,280.388947 
	C166.802582,279.995697 177.696686,279.928223 188.588348,280.060883 
	C190.814896,280.087982 193.032288,280.865662 195.253906,281.297333 
z"/>
<path fill="#4F4F9D" opacity="1.000000" stroke="none" 
	d="
M414.948364,233.991272 
	C414.969788,237.682907 414.991211,241.374527 414.511261,245.528259 
	C404.572540,245.993149 395.126404,246.224564 385.703217,245.860565 
	C382.843842,245.750107 380.048004,243.994507 377.223083,242.992401 
	C377.161926,240.282501 377.100769,237.572586 377.550415,234.419830 
	C390.356903,233.981750 402.652618,233.986511 414.948364,233.991272 
z"/>
<path fill="#2E2E8A" opacity="1.000000" stroke="none" 
	d="
M195.556702,281.153748 
	C193.032288,280.865662 190.814896,280.087982 188.588348,280.060883 
	C177.696686,279.928223 166.802582,279.995697 155.437012,279.986969 
	C154.949219,276.954224 154.933777,273.926910 154.947189,270.445312 
	C171.070633,270.322540 187.165222,270.654053 203.752930,270.983124 
	C203.919205,272.523438 204.099274,274.577545 203.163086,275.505798 
	C201.018082,277.632599 198.328156,279.209808 195.556702,281.153748 
z"/>
<path fill="#292887" opacity="1.000000" stroke="none" 
	d="
M380.941742,286.972534 
	C378.602142,283.598267 376.262543,280.223969 374.217346,276.404388 
	C376.132782,275.661469 377.751709,275.119110 379.375214,275.105225 
	C391.242401,275.003723 403.110474,275.008331 414.978271,274.979431 
	C414.965363,278.981384 414.952423,282.983337 414.607971,287.465729 
	C413.849579,287.971252 413.422760,287.996338 412.632050,287.826721 
	C401.826050,287.412201 391.383881,287.192352 380.941742,286.972534 
z"/>
<path fill="#434496" opacity="1.000000" stroke="none" 
	d="
M377.222290,243.404449 
	C380.048004,243.994507 382.843842,245.750107 385.703217,245.860565 
	C395.126404,246.224564 404.572540,245.993149 414.472473,245.986725 
	C414.960236,249.347977 414.985382,252.712906 414.511902,256.536865 
	C401.915497,256.995575 389.817657,256.995209 377.719849,256.994843 
	C377.553711,252.602051 377.387604,248.209274 377.222290,243.404449 
z"/>
<path fill="#CDCCCE" opacity="1.000000" stroke="none" 
	d="
M432.259644,169.643448 
	C430.754486,169.299255 429.132721,168.503738 427.426422,167.987427 
	C423.794830,166.888535 420.128479,165.096970 416.460419,165.056976 
	C392.152130,164.791962 367.839600,164.909012 343.528503,164.935471 
	C342.555176,164.936539 341.582214,165.277206 340.294373,165.740311 
	C337.012909,164.674530 334.046143,163.328064 331.079346,161.981613 
	C331.122314,161.695312 331.165253,161.409012 331.208191,161.122696 
	C332.086609,161.048767 332.964996,160.910614 333.843445,160.910263 
	C360.941528,160.899155 388.039795,160.853958 415.137634,160.934769 
	C422.066803,160.955429 428.225159,162.932648 432.259644,169.643448 
z"/>
<path fill="#33328C" opacity="1.000000" stroke="none" 
	d="
M415.004639,274.531616 
	C403.110474,275.008331 391.242401,275.003723 379.375214,275.105225 
	C377.751709,275.119110 376.132782,275.661469 374.086182,276.088226 
	C373.296844,276.167511 372.933044,276.117676 372.293152,275.680908 
	C372.022614,274.635437 372.028168,273.976898 372.033722,273.318390 
	C373.347321,271.430145 374.660919,269.541901 376.508789,267.309998 
	C389.683624,266.640137 402.324158,266.313965 414.964691,265.987793 
	C414.986816,268.686462 415.008911,271.385132 415.004639,274.531616 
z"/>
<path fill="#5A59A4" opacity="1.000000" stroke="none" 
	d="
M414.996185,233.533127 
	C402.652618,233.986511 390.356903,233.981750 377.606201,233.970428 
	C378.184662,232.997635 379.106262,231.367584 380.269379,231.171707 
	C388.508026,229.784225 388.693115,229.498001 383.863098,222.406311 
	C393.858368,222.032990 403.942657,222.013184 414.492065,221.990540 
	C414.986115,225.683456 415.015076,229.379211 414.996185,233.533127 
z"/>
<path fill="#C8C6C9" opacity="1.000000" stroke="none" 
	d="
M528.490723,341.571411 
	C527.959473,342.269348 527.348083,342.603241 526.402466,343.044281 
	C517.618958,339.431427 509.169769,335.711426 500.155090,331.805725 
	C499.589600,331.619965 499.146545,331.483337 499.146545,331.483337 
	C485.023132,327.748932 470.942413,328.660278 456.478699,331.910889 
	C455.347046,329.013763 456.204712,327.426453 459.419922,326.612030 
	C474.133026,322.885101 488.674927,322.361694 502.978973,328.253174 
	C509.897644,331.102844 516.802551,334.001007 523.589539,337.145386 
	C525.429016,337.997589 526.815918,339.826630 528.490723,341.571411 
z"/>
<path fill="#3A3993" opacity="1.000000" stroke="none" 
	d="
M414.995789,265.539551 
	C402.324158,266.313965 389.683624,266.640137 376.632446,266.964783 
	C376.628876,263.874908 377.035980,260.786621 377.581482,257.346558 
	C389.817657,256.995209 401.915497,256.995575 414.475922,256.993469 
	C414.967987,259.691101 414.997406,262.391174 414.995789,265.539551 
z"/>
<path fill="#1C1C82" opacity="1.000000" stroke="none" 
	d="
M380.967163,287.434204 
	C391.383881,287.192352 401.826050,287.412201 412.539429,288.154602 
	C409.548920,292.452332 406.287170,296.227478 402.616211,299.911194 
	C395.034790,299.507629 387.862579,299.195496 380.690399,298.883362 
	C380.791107,295.220886 380.891846,291.558380 380.967163,287.434204 
z"/>
<path fill="#BFB3C2" opacity="1.000000" stroke="none" 
	d="
M192.235443,373.245667 
	C196.505814,375.674561 200.335602,379.282532 204.881241,381.065887 
	C208.063721,382.314484 212.223923,381.070892 216.347839,380.909088 
	C216.647888,382.025604 216.620605,383.185303 216.435608,384.319214 
	C215.020691,392.991516 212.016403,396.422180 203.658203,398.083588 
	C202.434357,398.326904 199.960144,396.866516 199.508560,395.655792 
	C196.804611,388.406555 194.523453,380.999634 192.235443,373.245667 
z"/>
<path fill="#F4C4A0" opacity="1.000000" stroke="none" 
	d="
M171.859497,380.981995 
	C172.048447,371.641174 178.593857,366.368774 184.545120,360.479340 
	C186.560455,370.302277 188.494812,379.730530 190.015610,389.580444 
	C182.028625,390.259125 176.581696,386.333344 171.859497,380.981995 
z"/>
<path fill="#171880" opacity="1.000000" stroke="none" 
	d="
M160.990280,293.011597 
	C167.837570,292.673615 174.682846,292.282898 181.533020,292.019867 
	C184.974747,291.887756 188.425385,291.987854 192.316254,291.972717 
	C193.161118,294.340912 193.561737,296.719330 193.894745,299.821899 
	C192.952225,301.157928 192.102570,302.257019 191.198334,302.303925 
	C184.456345,302.653900 177.703537,302.795532 170.655762,302.851807 
	C167.235031,299.471283 164.112656,296.241425 160.990280,293.011597 
z"/>
<path fill="#BFB3C2" opacity="1.000000" stroke="none" 
	d="
M356.999939,385.366516 
	C359.360199,385.053009 361.694855,384.944489 363.970398,385.261139 
	C371.171143,386.262970 376.205505,382.286560 381.495850,377.982483 
	C382.075348,386.357361 378.095032,393.352509 374.447174,400.495056 
	C369.332336,398.027161 364.207916,396.152191 359.846588,393.163513 
	C358.039154,391.924957 357.864502,388.303711 356.999939,385.366516 
z"/>
<path fill="#101079" opacity="1.000000" stroke="none" 
	d="
M380.448517,299.094238 
	C387.862579,299.195496 395.034790,299.507629 402.432739,300.182312 
	C401.104187,302.362091 399.549896,304.179230 397.995605,305.996399 
	C392.090942,307.879089 386.298035,310.518036 380.247253,311.412476 
	C375.122375,312.170074 369.699249,310.909882 364.221497,310.198425 
	C371.390411,309.350098 376.187836,304.924408 380.448517,299.094238 
z"/>
<path fill="#CCB3A9" opacity="1.000000" stroke="none" 
	d="
M357.833496,187.136627 
	C347.310852,181.698532 337.320770,175.709290 326.817566,170.823227 
	C318.417786,166.915665 309.393890,164.349808 300.301941,161.064117 
	C313.612091,160.046509 325.684296,164.674744 337.401581,171.144821 
	C345.811218,175.788498 354.624329,179.701523 363.583954,184.100815 
	C361.996735,184.964798 360.070648,186.013245 357.833496,187.136627 
z"/>
<path fill="#BE9285" opacity="1.000000" stroke="none" 
	d="
M171.648270,381.299377 
	C176.581696,386.333344 182.028625,390.259125 190.054810,389.987823 
	C192.506958,393.701172 194.506348,397.428772 196.536469,401.213684 
	C178.179764,405.747223 170.298264,394.158020 171.648270,381.299377 
z"/>
<path fill="#101079" opacity="1.000000" stroke="none" 
	d="
M170.954132,303.002472 
	C177.703537,302.795532 184.456345,302.653900 191.198334,302.303925 
	C192.102570,302.257019 192.952225,301.157928 193.938141,300.213989 
	C198.185654,305.545715 203.575546,309.247986 210.902863,310.623169 
	C206.066193,311.418976 200.861252,312.738190 195.736038,312.479370 
	C187.548416,312.065887 179.457291,310.469635 172.213287,304.842285 
	C171.478714,304.006927 171.216431,303.504700 170.954132,303.002472 
z"/>
<path fill="#BE9285" opacity="1.000000" stroke="none" 
	d="
M364.993683,304.007507 
	C363.205322,303.894745 361.374512,303.496063 359.641022,303.753235 
	C358.048859,303.989532 356.561523,304.932434 354.370178,305.804169 
	C352.204224,306.092133 350.696136,306.139954 349.023438,306.012878 
	C348.858826,305.838013 348.527863,305.489899 348.527863,305.489899 
	C353.821198,297.103333 359.114532,288.716736 364.776062,280.621460 
	C369.199127,288.131531 370.097931,295.335632 365.111542,302.554016 
	C364.872284,302.900360 365.024017,303.516846 364.993683,304.007507 
z"/>
<path fill="#F4C4A0" opacity="1.000000" stroke="none" 
	d="
M385.393097,390.011261 
	C386.612152,382.186676 387.831177,374.362122 389.153992,365.871429 
	C394.674622,370.648590 399.249176,375.527771 399.305542,383.528015 
	C394.410126,385.983215 389.901611,387.997253 385.393097,390.011261 
z"/>
<path fill="#22186A" opacity="1.000000" stroke="none" 
	d="
M170.655777,302.851807 
	C171.216431,303.504700 171.478714,304.006927 171.868942,304.761871 
	C169.431335,305.674896 166.898514,306.610291 164.291321,306.920441 
	C161.522903,307.249817 158.683899,306.985931 155.399948,306.972229 
	C154.809570,299.557220 154.694977,292.151001 154.756531,284.375366 
	C156.764282,286.881165 158.595856,289.756409 160.708862,292.821625 
	C164.112656,296.241425 167.235031,299.471283 170.655777,302.851807 
z"/>
<path fill="#BE9285" opacity="1.000000" stroke="none" 
	d="
M385.175659,390.256104 
	C389.901611,387.997253 394.410126,385.983215 399.245056,383.905457 
	C401.520996,394.235077 392.596191,402.913025 380.694794,401.506012 
	C382.148865,397.752747 383.553558,394.126831 385.175659,390.256104 
z"/>
<path fill="#22186A" opacity="1.000000" stroke="none" 
	d="
M398.361755,306.186035 
	C399.549896,304.179230 401.104187,302.362091 402.841980,300.273773 
	C406.287170,296.227478 409.548920,292.452332 412.903290,288.349304 
	C413.422760,287.996338 413.849579,287.971252 414.594849,287.922699 
	C414.953552,293.946503 414.993774,299.993805 415.018860,306.505859 
	C409.578430,306.772278 404.153168,306.573944 398.361755,306.186035 
z"/>
<path fill="#776C7B" opacity="1.000000" stroke="none" 
	d="
M456.144470,398.317078 
	C467.128601,405.360535 479.408630,401.033783 491.905334,401.893372 
	C494.446167,401.515472 496.151794,401.218933 497.857452,400.922394 
	C498.962616,405.651306 496.924011,407.225983 492.324036,406.874481 
	C481.440491,406.042908 470.545959,405.323639 459.645569,404.758087 
	C455.097351,404.522095 455.986145,401.500092 456.144470,398.317078 
z"/>
<path fill="#BE9285" opacity="1.000000" stroke="none" 
	d="
M334.985962,330.006775 
	C331.964478,329.289734 328.943024,328.572723 325.897858,327.850098 
	C333.398560,320.359711 340.675323,313.092987 348.239990,305.658081 
	C348.527863,305.489899 348.858826,305.838013 348.954926,306.372437 
	C346.614441,311.564026 344.364899,316.332642 341.678314,320.840790 
	C339.750122,324.076416 337.237732,326.963928 334.985962,330.006775 
z"/>
<path fill="#F4C4A0" opacity="1.000000" stroke="none" 
	d="
M365.365021,304.008484 
	C365.024017,303.516846 364.872284,302.900360 365.111542,302.554016 
	C370.097931,295.335632 369.199127,288.131531 365.114166,280.557556 
	C371.095612,280.817902 375.562958,285.199738 375.968140,290.878143 
	C376.420898,297.224030 372.701111,301.997955 365.365021,304.008484 
z"/>
<path fill="#E7BA9C" opacity="1.000000" stroke="none" 
	d="
M335.333466,329.970093 
	C337.237732,326.963928 339.750122,324.076416 341.678314,320.840790 
	C344.364899,316.332642 346.614441,311.564026 349.119537,306.547333 
	C350.696136,306.139954 352.204224,306.092133 354.171448,306.047485 
	C351.567596,316.593109 344.364319,323.850433 335.333466,329.970093 
z"/>
<path fill="#E7BA9C" opacity="1.000000" stroke="none" 
	d="
M204.553040,281.358887 
	C202.933655,288.023926 202.130020,294.771637 204.818695,301.949829 
	C196.182419,297.267822 195.909760,287.235901 204.553040,281.358887 
z"/>
<path fill="#3E244B" opacity="1.000000" stroke="none" 
	d="
M499.944183,358.036255 
	C499.977509,368.049042 500.010834,378.061829 499.971985,388.538818 
	C499.602966,389.006989 499.306091,389.011841 498.787109,389.020752 
	C498.587311,379.082062 498.609650,369.140259 498.889130,358.716064 
	C499.407837,358.150177 499.673828,358.084351 499.944183,358.036255 
z"/>
<path fill="#E7BA9C" opacity="1.000000" stroke="none" 
	d="
M216.351898,306.427429 
	C220.914062,308.544525 221.954788,313.108582 222.937714,317.906677 
	C220.652893,314.400787 218.504929,310.615051 216.351898,306.427429 
z"/>
<path fill="#CCB3A9" opacity="1.000000" stroke="none" 
	d="
M456.579102,410.041107 
	C453.440033,410.219391 449.942719,410.221100 446.178467,409.993774 
	C449.347961,409.797974 452.784363,409.831268 456.579102,410.041107 
z"/>
<path fill="#CCB3A9" opacity="1.000000" stroke="none" 
	d="
M128.648682,409.626587 
	C125.645615,410.034210 122.206985,410.311310 118.422935,410.407990 
	C121.456047,409.983734 124.834572,409.739868 128.648682,409.626587 
z"/>
<path fill="#CCB3A9" opacity="1.000000" stroke="none" 
	d="
M426.603455,408.968201 
	C424.104340,409.097015 421.244171,409.064087 418.160583,408.762268 
	C420.705597,408.597748 423.473999,408.702118 426.603455,408.968201 
z"/>
<path fill="#969596" opacity="1.000000" stroke="none" 
	d="
M497.934692,400.560913 
	C496.151794,401.218933 494.446167,401.515472 492.373840,401.866150 
	C493.751892,400.636902 495.496613,399.353455 497.598541,398.034790 
	C497.974487,398.732849 497.993225,399.466125 497.934692,400.560913 
z"/>
<path fill="#CCB3A9" opacity="1.000000" stroke="none" 
	d="
M156.642853,408.407104 
	C154.593994,408.817657 152.133865,409.139648 149.352417,409.274597 
	C151.431259,408.831177 153.831421,408.574860 156.642853,408.407104 
z"/>
<path fill="#292887" opacity="1.000000" stroke="none" 
	d="
M371.732605,273.188385 
	C372.028168,273.976898 372.022614,274.635437 372.021179,275.625702 
	C370.791016,275.361298 369.556732,274.765137 368.322479,274.168976 
	C368.375031,273.798767 368.427582,273.428589 368.480164,273.058380 
	C369.463928,273.058380 370.447723,273.058380 371.732605,273.188385 
z"/>
<path fill="#484999" opacity="1.000000" stroke="none" 
	d="
M198.236176,237.858276 
	C197.831604,237.738312 197.541550,237.433807 197.071289,236.865921 
	C197.377609,236.959610 197.864151,237.316650 198.236176,237.858276 
z"/>
<path fill="#3F3F94" opacity="1.000000" stroke="none" 
	d="
M203.783157,248.767654 
	C203.327301,248.783432 202.864273,248.554474 202.201279,248.158157 
	C202.592880,248.168182 203.184433,248.345566 203.783157,248.767654 
z"/>
<path fill="#776C7B" opacity="1.000000" stroke="none" 
	d="
M345.060547,331.069153 
	C344.552856,331.726196 343.936401,332.256989 343.319946,332.787750 
	C343.140015,332.587524 342.960083,332.387299 342.780151,332.187073 
	C343.263123,331.734680 343.746063,331.282288 344.483093,330.758881 
	C344.737152,330.687866 344.951813,330.942871 345.060547,331.069153 
z"/>
<path fill="#7F534A" opacity="1.000000" stroke="none" 
	d="
M204.466507,235.850739 
	C204.641861,235.998688 204.697250,236.315720 204.782410,237.116669 
	C204.656967,237.073669 204.501770,236.546753 204.466507,235.850739 
z"/>
<path fill="#E7BA9C" opacity="1.000000" stroke="none" 
	d="
M204.771164,302.345367 
	C204.952728,302.313446 205.131409,302.533936 205.222412,302.849609 
	C205.012604,302.829163 204.890442,302.713470 204.771164,302.345367 
z"/>
<path fill="#CDCCCE" opacity="1.000000" stroke="none" 
	d="
M435.147797,173.676544 
	C434.859375,173.497116 434.518250,172.993500 434.093750,172.195953 
	C434.371979,172.385468 434.733521,172.868912 435.147797,173.676544 
z"/>
<path fill="#C3B8C7" opacity="1.000000" stroke="none" 
	d="
M359.239319,155.885681 
	C359.222748,155.656204 359.480408,155.610123 359.877930,155.759766 
	C359.827301,155.867813 359.659241,155.905685 359.239319,155.885681 
z"/>
<path fill="#CCB3A9" opacity="1.000000" stroke="none" 
	d="
M380.699768,407.120850 
	C380.782532,407.389923 380.538422,407.591705 380.061096,407.874695 
	C380.029510,407.679321 380.211182,407.378540 380.699768,407.120850 
z"/>
<path fill="#C3B8C7" opacity="1.000000" stroke="none" 
	d="
M356.241821,155.884766 
	C356.225098,155.654724 356.483551,155.608490 356.882416,155.757721 
	C356.831818,155.866318 356.663177,155.904785 356.241821,155.884766 
z"/>
<path fill="#C3B8C7" opacity="1.000000" stroke="none" 
	d="
M351.240143,155.885193 
	C351.222717,155.655411 351.480804,155.608444 351.879761,155.756317 
	C351.829529,155.864914 351.661194,155.903870 351.240143,155.885193 
z"/>
<path fill="#CDCCCE" opacity="1.000000" stroke="none" 
	d="
M434.034180,171.723907 
	C433.854980,171.707672 433.628143,171.370117 433.206665,170.792786 
	C433.336853,170.836212 433.661682,171.119400 434.034180,171.723907 
z"/>
<path fill="#3E244B" opacity="1.000000" stroke="none" 
	d="
M483.924438,337.990601 
	C487.969940,342.196289 488.777954,346.779175 486.119202,351.460693 
	C483.779785,355.579926 479.971130,358.186310 475.017578,357.553925 
	C470.003326,356.913788 466.502716,353.928192 465.182526,348.921936 
	C463.906677,344.083679 465.608398,340.018982 469.377899,337.006012 
	C473.269958,333.895081 478.732635,334.339233 483.924438,337.990601 
M476.416351,351.768768 
	C478.231262,349.949036 480.594635,348.381622 481.602478,346.190643 
	C482.030975,345.259247 479.977875,342.279388 478.425873,341.532257 
	C475.176819,339.968079 471.957855,341.011749 470.787872,344.663391 
	C469.493805,348.702271 471.946655,350.822968 476.416351,351.768768 
z"/>
<path fill="#3E244B" opacity="1.000000" stroke="none" 
	d="
M486.442383,374.833038 
	C483.985779,383.381897 477.606781,386.979065 471.582062,383.470520 
	C467.442902,381.060089 465.371857,377.426910 466.255402,372.588409 
	C467.138184,367.754211 470.206665,364.912628 475.097137,364.462036 
	C479.933777,364.016449 483.476501,366.205963 485.496979,370.623627 
	C486.037079,371.804504 486.156036,373.177979 486.442383,374.833038 
M480.369507,373.007019 
	C478.641663,372.090179 476.983917,370.754425 475.153931,370.448425 
	C474.343384,370.312805 472.204071,372.488159 472.373566,373.218689 
	C472.822144,375.151825 473.877228,378.050140 475.275879,378.434235 
	C478.516266,379.324097 480.500549,377.227905 480.369507,373.007019 
z"/>
<path fill="#614F68" opacity="1.000000" stroke="none" 
	d="
M500.032654,357.571747 
	C499.673828,358.084351 499.407837,358.150177 498.945709,358.271667 
	C498.539551,356.509308 498.333954,354.708954 498.150391,352.042877 
	C498.362030,347.456390 498.551575,343.735626 498.741089,340.014893 
	C498.885162,338.076843 499.029297,336.138794 499.344757,333.739380 
	C499.516113,333.277985 499.918182,333.226807 499.918152,333.226807 
	C499.985809,341.186951 500.053467,349.147095 500.032654,357.571747 
z"/>
<path fill="#969596" opacity="1.000000" stroke="none" 
	d="
M498.414978,340.157135 
	C498.551575,343.735626 498.362030,347.456390 498.109863,351.592346 
	C495.123291,348.378632 495.138702,344.039185 498.414978,340.157135 
z"/>
<path fill="#969596" opacity="1.000000" stroke="none" 
	d="
M499.944031,332.872864 
	C499.918182,333.226807 499.516113,333.277985 499.318878,333.325439 
	C499.123535,333.058655 499.125397,332.744415 499.136902,331.956787 
	C499.146545,331.483337 499.589600,331.619965 499.800659,331.715149 
	C499.997772,332.046509 499.983826,332.282715 499.944031,332.872864 
z"/>
<path fill="#CCB3A9" opacity="1.000000" stroke="none" 
	d="
M187.253342,410.267029 
	C187.580521,410.065002 188.080582,409.959259 188.744064,409.983154 
	C188.413727,410.196289 187.919983,410.279816 187.253342,410.267029 
z"/>
<path fill="#101079" opacity="1.000000" stroke="none" 
	d="
M360.497437,311.505585 
	C360.490265,311.485504 360.504608,311.525665 360.497437,311.505585 
z"/>
<path fill="#5D595F" opacity="1.000000" stroke="none" 
	d="
M476.038696,351.767517 
	C471.946655,350.822968 469.493805,348.702271 470.787872,344.663391 
	C471.957855,341.011749 475.176819,339.968079 478.425873,341.532257 
	C479.977875,342.279388 482.030975,345.259247 481.602478,346.190643 
	C480.594635,348.381622 478.231262,349.949036 476.038696,351.767517 
z"/>
<path fill="#5D595F" opacity="1.000000" stroke="none" 
	d="
M480.464905,373.361267 
	C480.500549,377.227905 478.516266,379.324097 475.275879,378.434235 
	C473.877228,378.050140 472.822144,375.151825 472.373566,373.218689 
	C472.204071,372.488159 474.343384,370.312805 475.153931,370.448425 
	C476.983917,370.754425 478.641663,372.090179 480.464905,373.361267 
z"/>
</svg>